<mxfile host="65bd71144e">
    <diagram id="VyP0pS75ytPtnRhprj_m" name="ページ1">
        <mxGraphModel dx="1887" dy="671" grid="1" gridSize="10" guides="1" tooltips="1" connect="1" arrows="1" fold="1" page="1" pageScale="1" pageWidth="827" pageHeight="1169" background="#ffffff" math="0" shadow="0">
            <root>
                <mxCell id="0"/>
                <mxCell id="1" parent="0"/>
                <mxCell id="4" value="AWS Cloud" style="points=[[0,0],[0.25,0],[0.5,0],[0.75,0],[1,0],[1,0.25],[1,0.5],[1,0.75],[1,1],[0.75,1],[0.5,1],[0.25,1],[0,1],[0,0.75],[0,0.5],[0,0.25]];outlineConnect=0;gradientColor=none;html=1;whiteSpace=wrap;fontSize=12;fontStyle=0;container=1;pointerEvents=0;collapsible=0;recursiveResize=0;shape=mxgraph.aws4.group;grIcon=mxgraph.aws4.group_aws_cloud_alt;strokeColor=#232F3E;fillColor=none;verticalAlign=top;align=left;spacingLeft=30;fontColor=#232F3E;dashed=0;" parent="1" vertex="1">
                    <mxGeometry x="110" y="150" width="670" height="450" as="geometry"/>
                </mxCell>
                <mxCell id="6" value="" style="sketch=0;points=[[0,0,0],[0.25,0,0],[0.5,0,0],[0.75,0,0],[1,0,0],[0,1,0],[0.25,1,0],[0.5,1,0],[0.75,1,0],[1,1,0],[0,0.25,0],[0,0.5,0],[0,0.75,0],[1,0.25,0],[1,0.5,0],[1,0.75,0]];outlineConnect=0;fontColor=#232F3E;gradientColor=#60A337;gradientDirection=north;fillColor=#277116;strokeColor=#ffffff;dashed=0;verticalLabelPosition=bottom;verticalAlign=top;align=center;html=1;fontSize=12;fontStyle=0;aspect=fixed;shape=mxgraph.aws4.resourceIcon;resIcon=mxgraph.aws4.s3;" parent="4" vertex="1">
                    <mxGeometry x="213" y="152" width="50" height="50" as="geometry"/>
                </mxCell>
                <mxCell id="93" value="" style="edgeStyle=none;html=1;strokeColor=#141414;strokeWidth=2;fontColor=#B3B3B3;entryX=0;entryY=0.5;entryDx=0;entryDy=0;entryPerimeter=0;" edge="1" parent="4" source="8" target="6">
                    <mxGeometry relative="1" as="geometry"/>
                </mxCell>
                <mxCell id="8" value="" style="sketch=0;points=[[0,0,0],[0.25,0,0],[0.5,0,0],[0.75,0,0],[1,0,0],[0,1,0],[0.25,1,0],[0.5,1,0],[0.75,1,0],[1,1,0],[0,0.25,0],[0,0.5,0],[0,0.75,0],[1,0.25,0],[1,0.5,0],[1,0.75,0]];outlineConnect=0;fontColor=#232F3E;gradientColor=#945DF2;gradientDirection=north;fillColor=#5A30B5;strokeColor=#ffffff;dashed=0;verticalLabelPosition=bottom;verticalAlign=top;align=center;html=1;fontSize=12;fontStyle=0;aspect=fixed;shape=mxgraph.aws4.resourceIcon;resIcon=mxgraph.aws4.cloudfront;" parent="4" vertex="1">
                    <mxGeometry x="50" y="152" width="50" height="50" as="geometry"/>
                </mxCell>
                <mxCell id="9" value="" style="sketch=0;points=[[0,0,0],[0.25,0,0],[0.5,0,0],[0.75,0,0],[1,0,0],[0,1,0],[0.25,1,0],[0.5,1,0],[0.75,1,0],[1,1,0],[0,0.25,0],[0,0.5,0],[0,0.75,0],[1,0.25,0],[1,0.5,0],[1,0.75,0]];outlineConnect=0;fontColor=#232F3E;gradientColor=#945DF2;gradientDirection=north;fillColor=#5A30B5;strokeColor=#ffffff;dashed=0;verticalLabelPosition=bottom;verticalAlign=top;align=center;html=1;fontSize=12;fontStyle=0;aspect=fixed;shape=mxgraph.aws4.resourceIcon;resIcon=mxgraph.aws4.route_53;" parent="4" vertex="1">
                    <mxGeometry x="85" y="341.74" width="50" height="50" as="geometry"/>
                </mxCell>
                <mxCell id="40" value="" style="edgeStyle=none;html=1;strokeColor=#141414;fontColor=#999999;strokeWidth=2;" parent="4" source="10" target="6" edge="1">
                    <mxGeometry relative="1" as="geometry"/>
                </mxCell>
                <mxCell id="94" value="" style="edgeStyle=none;html=1;strokeColor=#141414;strokeWidth=2;fontColor=#B3B3B3;entryX=0.5;entryY=0;entryDx=0;entryDy=0;entryPerimeter=0;" edge="1" parent="4" source="10" target="11">
                    <mxGeometry relative="1" as="geometry">
                        <mxPoint x="239" y="350" as="targetPoint"/>
                    </mxGeometry>
                </mxCell>
                <mxCell id="10" value="" style="sketch=0;points=[[0,0,0],[0.25,0,0],[0.5,0,0],[0.75,0,0],[1,0,0],[0,1,0],[0.25,1,0],[0.5,1,0],[0.75,1,0],[1,1,0],[0,0.25,0],[0,0.5,0],[0,0.75,0],[1,0.25,0],[1,0.5,0],[1,0.75,0]];outlineConnect=0;fontColor=#232F3E;gradientColor=#F78E04;gradientDirection=north;fillColor=#D05C17;strokeColor=#ffffff;dashed=0;verticalLabelPosition=bottom;verticalAlign=top;align=center;html=1;fontSize=12;fontStyle=0;aspect=fixed;shape=mxgraph.aws4.resourceIcon;resIcon=mxgraph.aws4.lambda;" parent="4" vertex="1">
                    <mxGeometry x="213" y="248.26" width="50" height="50" as="geometry"/>
                </mxCell>
                <mxCell id="11" value="" style="sketch=0;points=[[0,0,0],[0.25,0,0],[0.5,0,0],[0.75,0,0],[1,0,0],[0,1,0],[0.25,1,0],[0.5,1,0],[0.75,1,0],[1,1,0],[0,0.25,0],[0,0.5,0],[0,0.75,0],[1,0.25,0],[1,0.5,0],[1,0.75,0]];outlineConnect=0;fontColor=#232F3E;gradientColor=#F78E04;gradientDirection=north;fillColor=#D05C17;strokeColor=#ffffff;dashed=0;verticalLabelPosition=bottom;verticalAlign=top;align=center;html=1;fontSize=12;fontStyle=0;aspect=fixed;shape=mxgraph.aws4.resourceIcon;resIcon=mxgraph.aws4.ecr;" parent="4" vertex="1">
                    <mxGeometry x="213" y="340" width="50" height="50" as="geometry"/>
                </mxCell>
                <mxCell id="32" value="" style="edgeStyle=none;html=1;strokeColor=#141414;fontColor=#999999;strokeWidth=2;" parent="4" source="12" target="6" edge="1">
                    <mxGeometry relative="1" as="geometry"/>
                </mxCell>
                <mxCell id="12" value="" style="sketch=0;points=[[0,0,0],[0.25,0,0],[0.5,0,0],[0.75,0,0],[1,0,0],[0,1,0],[0.25,1,0],[0.5,1,0],[0.75,1,0],[1,1,0],[0,0.25,0],[0,0.5,0],[0,0.75,0],[1,0.25,0],[1,0.5,0],[1,0.75,0]];outlineConnect=0;fontColor=#232F3E;gradientColor=#4D72F3;gradientDirection=north;fillColor=#3334B9;strokeColor=#ffffff;dashed=0;verticalLabelPosition=bottom;verticalAlign=top;align=center;html=1;fontSize=12;fontStyle=0;aspect=fixed;shape=mxgraph.aws4.resourceIcon;resIcon=mxgraph.aws4.codebuild;" parent="4" vertex="1">
                    <mxGeometry x="320.11" y="152" width="50" height="50" as="geometry"/>
                </mxCell>
                <mxCell id="15" value="" style="sketch=0;outlineConnect=0;fontColor=#232F3E;gradientColor=none;fillColor=#B0084D;strokeColor=none;dashed=0;verticalLabelPosition=bottom;verticalAlign=top;align=center;html=1;fontSize=12;fontStyle=0;aspect=fixed;pointerEvents=1;shape=mxgraph.aws4.parameter_store;" parent="4" vertex="1">
                    <mxGeometry x="360.11" y="130" width="35.77" height="37.2" as="geometry"/>
                </mxCell>
                <mxCell id="20" value="" style="edgeStyle=none;html=1;strokeColor=#141414;strokeWidth=2;" parent="4" source="17" target="19" edge="1">
                    <mxGeometry relative="1" as="geometry">
                        <Array as="points">
                            <mxPoint x="539" y="177"/>
                        </Array>
                    </mxGeometry>
                </mxCell>
                <mxCell id="17" value="" style="sketch=0;points=[[0,0,0],[0.25,0,0],[0.5,0,0],[0.75,0,0],[1,0,0],[0,1,0],[0.25,1,0],[0.5,1,0],[0.75,1,0],[1,1,0],[0,0.25,0],[0,0.5,0],[0,0.75,0],[1,0.25,0],[1,0.5,0],[1,0.75,0]];outlineConnect=0;fontColor=#232F3E;gradientColor=#945DF2;gradientDirection=north;fillColor=#5A30B5;strokeColor=#ffffff;dashed=0;verticalLabelPosition=bottom;verticalAlign=top;align=center;html=1;fontSize=12;fontStyle=0;aspect=fixed;shape=mxgraph.aws4.resourceIcon;resIcon=mxgraph.aws4.api_gateway;" parent="4" vertex="1">
                    <mxGeometry x="559" y="152" width="50" height="50" as="geometry"/>
                </mxCell>
                <mxCell id="18" value="" style="sketch=0;points=[[0,0,0],[0.25,0,0],[0.5,0,0],[0.75,0,0],[1,0,0],[0,1,0],[0.25,1,0],[0.5,1,0],[0.75,1,0],[1,1,0],[0,0.25,0],[0,0.5,0],[0,0.75,0],[1,0.25,0],[1,0.5,0],[1,0.75,0]];outlineConnect=0;fontColor=#232F3E;gradientColor=#FF4F8B;gradientDirection=north;fillColor=#BC1356;strokeColor=#ffffff;dashed=0;verticalLabelPosition=bottom;verticalAlign=top;align=center;html=1;fontSize=12;fontStyle=0;aspect=fixed;shape=mxgraph.aws4.resourceIcon;resIcon=mxgraph.aws4.sns;" parent="4" vertex="1">
                    <mxGeometry x="441.11" y="60" width="50" height="50" as="geometry"/>
                </mxCell>
                <mxCell id="24" value="" style="edgeStyle=none;html=1;strokeColor=#141414;fontColor=#999999;strokeWidth=2;" parent="4" source="19" target="18" edge="1">
                    <mxGeometry relative="1" as="geometry"/>
                </mxCell>
                <mxCell id="26" value="" style="edgeStyle=none;html=1;strokeColor=#141414;fontColor=#999999;strokeWidth=2;" parent="4" source="19" target="12" edge="1">
                    <mxGeometry relative="1" as="geometry"/>
                </mxCell>
                <mxCell id="19" value="" style="sketch=0;points=[[0,0,0],[0.25,0,0],[0.5,0,0],[0.75,0,0],[1,0,0],[0,1,0],[0.25,1,0],[0.5,1,0],[0.75,1,0],[1,1,0],[0,0.25,0],[0,0.5,0],[0,0.75,0],[1,0.25,0],[1,0.5,0],[1,0.75,0]];outlineConnect=0;fontColor=#232F3E;gradientColor=#FF4F8B;gradientDirection=north;fillColor=#BC1356;strokeColor=#ffffff;dashed=0;verticalLabelPosition=bottom;verticalAlign=top;align=center;html=1;fontSize=12;fontStyle=0;aspect=fixed;shape=mxgraph.aws4.resourceIcon;resIcon=mxgraph.aws4.eventbridge;" parent="4" vertex="1">
                    <mxGeometry x="441.11" y="152" width="50" height="50" as="geometry"/>
                </mxCell>
                <mxCell id="37" value="" style="edgeStyle=none;html=1;strokeColor=#141414;fontColor=#999999;strokeWidth=2;" parent="4" source="28" target="10" edge="1">
                    <mxGeometry relative="1" as="geometry"/>
                </mxCell>
                <mxCell id="28" value="" style="sketch=0;points=[[0,0,0],[0.25,0,0],[0.5,0,0],[0.75,0,0],[1,0,0],[0,1,0],[0.25,1,0],[0.5,1,0],[0.75,1,0],[1,1,0],[0,0.25,0],[0,0.5,0],[0,0.75,0],[1,0.25,0],[1,0.5,0],[1,0.75,0]];outlineConnect=0;fontColor=#232F3E;gradientColor=#FF4F8B;gradientDirection=north;fillColor=#BC1356;strokeColor=#ffffff;dashed=0;verticalLabelPosition=bottom;verticalAlign=top;align=center;html=1;fontSize=12;fontStyle=0;aspect=fixed;shape=mxgraph.aws4.resourceIcon;resIcon=mxgraph.aws4.eventbridge;" parent="4" vertex="1">
                    <mxGeometry x="320.11" y="248.26" width="50" height="50" as="geometry"/>
                </mxCell>
                <mxCell id="51" value="ap-northeast-1" style="points=[[0,0],[0.25,0],[0.5,0],[0.75,0],[1,0],[1,0.25],[1,0.5],[1,0.75],[1,1],[0.75,1],[0.5,1],[0.25,1],[0,1],[0,0.75],[0,0.5],[0,0.25]];outlineConnect=0;gradientColor=none;html=1;whiteSpace=wrap;fontSize=12;fontStyle=0;container=1;pointerEvents=0;collapsible=0;recursiveResize=0;shape=mxgraph.aws4.group;grIcon=mxgraph.aws4.group_region;strokeColor=#147EBA;fillColor=none;verticalAlign=top;align=left;spacingLeft=30;fontColor=#147EBA;dashed=1;" parent="4" vertex="1">
                    <mxGeometry x="149" y="30" width="510" height="390" as="geometry"/>
                </mxCell>
                <mxCell id="13" value="" style="sketch=0;points=[[0,0,0],[0.25,0,0],[0.5,0,0],[0.75,0,0],[1,0,0],[0,1,0],[0.25,1,0],[0.5,1,0],[0.75,1,0],[1,1,0],[0,0.25,0],[0,0.5,0],[0,0.75,0],[1,0.25,0],[1,0.5,0],[1,0.75,0]];points=[[0,0,0],[0.25,0,0],[0.5,0,0],[0.75,0,0],[1,0,0],[0,1,0],[0.25,1,0],[0.5,1,0],[0.75,1,0],[1,1,0],[0,0.25,0],[0,0.5,0],[0,0.75,0],[1,0.25,0],[1,0.5,0],[1,0.75,0]];outlineConnect=0;fontColor=#232F3E;gradientColor=#F34482;gradientDirection=north;fillColor=#BC1356;strokeColor=#ffffff;dashed=0;verticalLabelPosition=bottom;verticalAlign=top;align=center;html=1;fontSize=12;fontStyle=0;aspect=fixed;shape=mxgraph.aws4.resourceIcon;resIcon=mxgraph.aws4.cloudwatch_2;" parent="51" vertex="1">
                    <mxGeometry x="421" y="300" width="50" height="50" as="geometry"/>
                </mxCell>
                <mxCell id="14" value="" style="sketch=0;outlineConnect=0;fontColor=#232F3E;gradientColor=none;fillColor=#B0084D;strokeColor=none;dashed=0;verticalLabelPosition=bottom;verticalAlign=top;align=center;html=1;fontSize=12;fontStyle=0;aspect=fixed;pointerEvents=1;shape=mxgraph.aws4.logs;" parent="51" vertex="1">
                    <mxGeometry x="461" y="280" width="38" height="28.26" as="geometry"/>
                </mxCell>
                <mxCell id="71" value="SNS" style="text;html=1;align=center;verticalAlign=middle;resizable=0;points=[];autosize=1;strokeColor=none;fillColor=none;fontColor=#999999;" parent="51" vertex="1">
                    <mxGeometry x="290" y="6" width="50" height="30" as="geometry"/>
                </mxCell>
                <mxCell id="73" value="API Gateway" style="text;html=1;align=center;verticalAlign=middle;resizable=0;points=[];autosize=1;strokeColor=none;fillColor=none;fontColor=#999999;" parent="51" vertex="1">
                    <mxGeometry x="390" y="170" width="90" height="30" as="geometry"/>
                </mxCell>
                <mxCell id="74" value="Cloud Watch&lt;br&gt;Logs" style="text;html=1;align=center;verticalAlign=middle;resizable=0;points=[];autosize=1;strokeColor=none;fillColor=none;fontColor=#999999;labelBackgroundColor=none;sketch=0;" parent="51" vertex="1">
                    <mxGeometry x="401" y="350" width="90" height="40" as="geometry"/>
                </mxCell>
                <mxCell id="75" value="EventBridge" style="text;html=1;align=center;verticalAlign=middle;resizable=0;points=[];autosize=1;strokeColor=none;fillColor=none;fontColor=#999999;" parent="51" vertex="1">
                    <mxGeometry x="275" y="170" width="90" height="30" as="geometry"/>
                </mxCell>
                <mxCell id="77" value="Code Build" style="text;html=1;align=center;verticalAlign=middle;resizable=0;points=[];autosize=1;strokeColor=none;fillColor=none;fontColor=#999999;" parent="51" vertex="1">
                    <mxGeometry x="110" y="100" width="80" height="30" as="geometry"/>
                </mxCell>
                <mxCell id="78" value="EventBridge" style="text;html=1;align=center;verticalAlign=middle;resizable=0;points=[];autosize=1;strokeColor=none;fillColor=none;fontColor=#999999;" parent="51" vertex="1">
                    <mxGeometry x="150" y="266.52" width="90" height="30" as="geometry"/>
                </mxCell>
                <mxCell id="79" value="S3" style="text;html=1;align=center;verticalAlign=middle;resizable=0;points=[];autosize=1;strokeColor=none;fillColor=none;fontColor=#999999;" parent="51" vertex="1">
                    <mxGeometry x="70" y="99" width="40" height="30" as="geometry"/>
                </mxCell>
                <mxCell id="80" value="Lambda" style="text;html=1;align=center;verticalAlign=middle;resizable=0;points=[];autosize=1;strokeColor=none;fillColor=none;fontColor=#999999;labelBackgroundColor=none;sketch=0;" parent="51" vertex="1">
                    <mxGeometry y="235" width="70" height="30" as="geometry"/>
                </mxCell>
                <mxCell id="81" value="ECR" style="text;html=1;align=center;verticalAlign=middle;resizable=0;points=[];autosize=1;strokeColor=none;fillColor=none;fontColor=#999999;labelBackgroundColor=none;sketch=0;" parent="51" vertex="1">
                    <mxGeometry x="65" y="360" width="50" height="30" as="geometry"/>
                </mxCell>
                <mxCell id="88" value="" style="shape=image;imageAspect=0;aspect=fixed;verticalLabelPosition=bottom;verticalAlign=top;image=data:image/png,iVBORw0KGgoAAAANSUhEUgAAAgAAAAIACAMAAADDpiTIAAADAFBMVEUAAAAAAAAAAAAAAAAAAAAAAAAAAAAAAAAAAAAAAAAAAAAAAAAAAAAAAAAAAAAAAAAAAAAAAAAAAAAAAAAAAAAAAAAAAAAAAAAAAAAAAAAAAAAAAAAAAAAAAAAAAAAAAAAAAAAAAAAAAAAAAAAAAAAAAAAAAAAAAAAAAAAAAAAAAAAAAAAAAAAAAAAAAAAAAAAAAAAAAAAAAAAAAAAAAAAAAAAAAAAAAAAAAAAAAAAAAAAAAAAAAAAAAAAAAAAAAAAAAAAAAAAAAAAAAAAAAAAAAAAAAAAAAAAAAAAAAAAAAAAAAAAAAAAAAAAAAAAAAAAAAAAAAAAAAAAAAAAAAAAAAAAAAAAAAAAAAAAAAAAAAAAAAAAAAAAAAAAAAAAAAAAAAAAAAAAAAAAAAAAAAAAAAAAAAAAAAAAAAAAAAAAAAAAAAAAAAAAAAAAAAAAAAAAAAAAAAAAAAAAAAAAAAAAAAAAAAAAAAAAAAAAAAAAAAAAAAAAAAAAAAAAAAAAAAAAAAAAAAAAAAAAAAAAAAAAAAAAAAAAAAAAAAAAAAAAAAAAAAAAAAAAAAAAAAAAAAAAAAAAAAAAAAAAAAAAAAAAAAAAAAAAAAAAAAAAAAAAAAAAAAAAAAAAAAAAAAAAAAAAAAAAAAAAAAAAAAAAAAAAAAAAAAAAAAAAAAAAAAAAAAAAAAAAAAAAAAAAAAAAAAAAAAAAAAAAAAAAAAAAAAAAAAAAAAAAAAAAAAAAAAAAAAAAAAAAAAAAAAAAAAAAAAAAAAAAAAAAAAAAAAAAAAAAAAAAAAAAAAAAAAAAAAAAAAAAAAAAAAAAAAAAAAAAAAAAAAAAAAAAAAAAAAAAAAAAAAAAAAAAAAAAAAAAAAAAAAAAAAAAAAAAAAAAAAAAAAAAAAAAAAAAAAAAAAAAAAAAAAAAAAAAAAAAAAAAAAAAAAAAAAAAAAAAAAAAAAAAAAAAAAAAAAAAAAAAAAAAAAAAAAAAAAAAAAAAAAAAAAAAAAAAAAAAAAAAAAAAAAAAAAACzMPSIAAAA/3RSTlMABRszSVhnd4eWpbXEzM7d6O7w++PNyLuyqpyLeVNBLx0KEDBQcI+kvdTq8dW6oIRqTjQUQ5Cw0KmFYj4CJVJ6osrzm28VBjJjk8PyjlsBKWH6uRkORH22qCsM/KxuCIPtrh8kuPfXRwkHRdn2tx4RX/T+yygTXrP5kTwabL/giCxVgCED/ZTrpmbaF5l2Eu/4TW1o7K+dIiqnhgvn1kon6Tk9zy3bP9KN3kINBIL1JuUYI7TiOtFlx5LfsUihHA8W08Dk3HhamHVdQNiVflxgiUzBvCC+yTh8e0+KwqOff+ZGLjtUaYGea6tycXQ2jOE1SzFRWVc3xq3FVnOaZJf4qAM1AAAjvklEQVR42u2daWAV1fmHT0AIKBBIZJMdypZABUERvUhAiAoatgRki8iiRJDlli1QhYRERJGwihIQUNACMSyKoKIgoCiodaFaFVvE+lfrhrZ1aet/mp27zL3znpkz8zvn3nm+8IVMfvO+T2bunTkLY9FDTJWqF1SrHluj5oUX1apdJy6ubr14rYSEesVcHFe/QcNGjS9p0rR6s+YtWrZCh3URRus2v2nbrn2HjokaD0mdOv/20i5dL+uGju9imirdu1x+RY94rr4HE1/7yp5XXV0FfTIuHHh6XdM7uU+Sxc7707fBtf2690efmYsRKdddf8OAgUJb70vdhjfe1CsVfZIuuqQOGnxtjyG29f489YZe2nUY+mxd/EhLHz6ingO9P8/FN3cZ6V4KpGDUBU1qj3a0+RUkjhnbwoM+/egmo/kttRIgza9g3K3Vx6OrEK1MGDtxErT5Fdx24+2T0cWINjLvaDcF3Xdfpt45dhq6JtHD9BlXzER3PBjv75rOQlcmGpg9Z+48dK9DEpc13/1qYCcLfn8X5gM/nbsXLkJXKVKZnD0X+4mfSqecxehaRR656ckS3vdDkVern/saUSRV71mC7ikvk+5t7n4cEEPa0vrobprjvtj70bWLAKou64tupHlGN8zORRdQadLGdkT30CpxDyxHV1FZJizMR7dPBCuSF6ErqSKp6Y1l/8pPp9ZK9wMhH6NWSfWo3zq3rXYHGtPplrMG3TDxLMmZjq6rIozPUuiRDw99sxaga6sAE5Y5Ma4PxIplLdH1lZw2a73oJtnLvAcnoGssMSOT89ANsp+8xuvQdZaUh5Ij53tfWOYtc0eVBzPo4Sj4669g5nr3G4E//bPUeNUvjIEL09A1l4iCWPtmc0nLkn7ue6IyYpZuQDcDw8ZH0KWXgmb3oRuBo9EmdPXhzJqIbgKUIcuie8r58hui7LNfMONWRe9HAc+czejyy0CPLehGgHj0MXTpJSFvWTQOGmqdFUUPfowY1y/qpplnu1d/PwZsRXfEUSY0RBdcOob0zER3xTFi+kXoiA9rbHsc3RiHqPoEutSSMvoP0TBuMCZW3tndcLbvQLfHdrYqOs3LIbzLdqI7ZCuF7p+/EXc/im6SjSyqgy6vAox+shDdJ7uYU4Qurhr02YXulC30b4QurDJM7Ydulg10340uq0rcuQfdL8HE5LhP/rnY3B3dMqHsdb/88ZIQG0ETilc6u5J3hPBUpLwkLnQv/+Z4eh+6dUKoUgtdSGWJiNtAuvvi3wKNC9D9s0hq0yiZ72cXz6i96GhGMrqAyjMuHd1EC1Tpgy5fBDA6Ft1G0+yL0ilfommv6H4k+91Xv4I4oOKD4dxn0WWLIJ57CN1ObgqeRxctohh4EN1QTvb8Dl2yCCNhKbqlXIy8G12wyGOhQk8Fd+SjqxWJvJCC7iuVOe7Hf1toOArdWRqr3Jd/NvE7JTYiikWXKYLZ+CK6u4akXo4uUkTzXC90gw1IuRldoginbht0i8NScCe6QBFPPZmHCaW5g3/sp+/V6DaH5NABdHGigiJZpxC3boAuTZRQJOecgenu6A+nKJJxlNB09/WPc0yVz4DDL6GLElVMvQPd8ABauzP/nWWqXN8F0tz7v9MkXYZuug+Tj6DLEYUskWeYWMpF6GJEJUdlmTOS2xhdiijlmBwbkXouRBciauk4G938Etz3vzj6SDB39GV0EaKaufDtRl6J8L1+Zec4uP873PGfYF6F9r9qX/T5Rz3e14D93+uu/oFnxQlY/6efRJ+8SzH1UCvLFrr7vsjBydYYAV5Hn7hLOUMh64uvQp+2SyV/APT/jqjf9FUm9jve/1n56HN28WGI0zuOtY7iPd+lpK6zswZTb0WfsEsADRxdPeAN9Om6BHG5g/2/w13/VULedKz/45egz9VFh75ODRLMcLf/kJOTDm06+QL6RF1C0N6R/v8RfZouIbnKgf5PGIg+S5eQzNxke/8z3TlgMlPf9qcB96BP0SUsb9nc/7fdMaByk2fvxPEX16BP0MWAuvfb2H/PO+jTczHkChsFeBV9ci4E5tjW/4cmoc/NhUB8S5v6X+iuAqQGnW3aWeAW9Im5ELHngWDVIejzciGSNM2G/rdyZ4Gow7s23ASaoE/KhQPxN4EW7g1AJcYdFtz/wtroU3LhIlmwAA+gT8iFE7HvBE7NRJ+PCyfbMkQK0Bl9Oi7cPCmw/zPQJ+PCz7xBwvo/PRF9Mi4m+JMwAdxRQGrSTFD/t7oTwdXk6VZC+p/qjgJRleFCBJiDPg0Xs0wdL6D/O3ejT8PFNPcKEOBG9Em4WMD6xjK73JdAKvOe5ffC7lIgapNtsf/vuxNB1Oa+GGsCuLtBq85qS/3PRsd3scpmK6tGxLiLwanPny0IMBYd3sU6Aw+b7v9O9y1gJNDEtAAfoKO7iGCm2UtA2jh0dBU5+eADHw4aP71wVP91WwbXeEqGPXU+MimAuxwoN6evD5yTE/NoE/iqiiYvAa3z0cEVw/txG91CZgw+Bk5m7hLwJLqgihEXeiD25BzsGxVTl4DlSeiKqkWjsMNvmsdDw71lQoCe6IqWk/jOCzmxsbE9/zJxAzpKOP5k8Mz9cegOm32Xc/c/DatsOe/8fqTP+8yW2e1lvSzlG+7k/ldoPv7HgRLMBRt9PHhke0a2nMuUrDcs6Kh8ZL66vPOEMs+gS6q9d51+tE96oJPpcNa4pMnQgNU5BdiPrqh2YchFT2PAn6l1GOIxLmlbaMIphIQ+eKagS3o83FimT+uh4wWQSKjpa9iI13AJ8Dd0RTuGv2eNPIoO6E9dQk1vwkbswyXAe+CC5hndU9vItWShAgJon3L0/3F0QdcaRvwMHdEPFQS4mUOAMeiCVjPOuBad0RcVBBhi+Kiikmnw2aAtjUP2l2m0igoCaDlkAWqgo46mTGd4E53SByUEOEPdTSQD/gI7iZSzETrmeZQQgHJjLeUqdFAtnpRzmDwjltQQoBZRAPy2UDQBJFq6SA0BtDaEmIw9io5JFoBdgQ5agSICvE6qant0TLoAC2R5JKyIAPGUNWMOFaFj0gWQ4ONKGYoIoL1CyNkFHVLjEICNQEctQxUB3iXklGFVaLoAVfLRWUtRRQDvXsOYW9EZS6ALIMHAhRJUEUD7P8OYz6IjlsAhQOpEdNgSlBHg4lyDlJlSPFzhEICNl2E3c2UEMFxFvho6YCk8ArDV6LSaSgJ8bpDyInTAUrgESB2KjquSAEmTw4ZcDp2+UAmXAOwU/iagjgAGYwOro+OVwScA+wKdVyUBvgwb8gg6XhmcAqQ2RAdWSIBJh8JkXJCHjlcGpwBsMXoZBoUE0GaEyfh3dLhyeAWAr2alkgATw2SU4TFwCdwCeMB7GqgkwJDpISP2QmergFsA1gv7DlMlAbQ3Q0Z8GR2tAn4B2FfQwEoJMCZkxAPoaBWYEMBzGhlYKQGKQg0LuV+S7wCmBGC7pgIDKyWA1jVEwqXoYJWYEYB9DQyslgCh3gfI8R6gBFMCeAbgAqslwJpC3YCj5Jlwa0oANgh3AmoJEGInoWboWOcxJwCLhQVWTICeugGxa9j4YVKAXNiyBooJUEcvn0ei2bYmBWAjV4ACKyaAd49OvqroVD6YFYD1BgVWTADdF0Ko2ulhWoDCPpjAqgmgt6PoXehQPpgWgA3C3ARUE2Bc8ODgAjkGg5VhXgA2HBJYNQG094PivY2O5IsFAQohr7SVE6B3ULwsdCRfLAjAziIuZcoJMDQo3m3oSL5YEYDlAAIrJ0BR4HpBVdCJ/LAkQMozzgdWTgBtS0A6OWYEVWBJANbC+bWk1RPg5YB096AD+WFNAHaL44HVE+DOgHSAy2YYLAqQ8oTTgdUToK//FjetpRkMVIpFAdhlTi91qp4A2jd+4R5Bx/HHqgBsvcOBFRSgn184+OKw/lgWIPMlZwMrKID/6wDgaCo9LAvAvhntaGAFBYjz+4NBvUcPgXUB2FuOBlZQAO2w798LOkwAAgTI7ORkYBUFWOmTTYa1AX0RIAB738mbgIoCXOqT7UF0mABECMC+dTCwigI09Mn2GDpMAEIEmOzg1ncqChB/fleODNk2YhQiANvi3E1ARQG0xZXR3kdHCUSMAKydY4GVFOA3ldHwiywFIEiAVvc5FVhJAf5aGe1zdJRABAnA9jn1ikNJAW6tjIbfIyYAUQKwGxwKrKQAlc8CPciZ9boIE6DVNmcCKymAt2LBuAnoJEEIE4Cd8DoSWEkBtPnlybqigwQhTgBW05HAagqwujyZNGtDVUIRoIAmwM7nnAispgDtypNJNC+8HIoAXbbSDNjhxE1ATQFGlCeTZXnI81AE+Oox4la4yxwIrKYA5V8DPDPRQYIgCUDdDTvtO/sDqylAXkZpsMXoHMHQBEg4RzOgu/03ATUF0MruorejYwRDE0DbOJnw/4q5xPbAigrwt9JgMuy5EwBRAK0JTYBDF9sdWFEB/lwazNnRcySoAuRdTfiPxaTbfRNQVIAHS4N9iY4RDFUAbfsomgF/sTmwogKU7SQr37dAugDaPTQB7L4JKCrAsdJgUmwV6Q9dAO9BmgHf2xtYUQHmeUr+ONApdKALoB2dTvi/zO7HnYoKoC0ozvUDOoQOHAIYboVZTuujdgZWVYCSZSL+gQ6hA48AfhMcwvChnYFVFeCfxbl+jw6hA5cAG2bTDLjQxsCqClCyTkhPdAgduATwGdsWltkb7AusqgBZTMIRoRqvANq/aAbYOPBFVQGuLM41Ah1CB04B1uwh/P9ibrYtsKoCHGESDgnWuAXQ5tIE6FbXrsCqCnCyOJeNd0bT8AqgDaYZkG1XYFUFKC60x+n1lIi5+ARImkYzwK73HqoKoE1me9AR9OAWQOuQSviR4pvAZnsCKyvAKdYCHUEPfgG0L2iXAJtWRFVWgB9Zc3QEPUwIUNSLZsAYWwIrK8BBKZ8EmxFA+ymX8EOM9bdlbyxlBfgXG4yOoIcZAbRXaZcAW/qgrADVWVt0BD1MCbCCOFPkVhsCKytALGR7BUNMCaDViSH8GGPDbBgBo6wA6x1cRoUDcwL4LHkRlhniAysrQE0p3wWZFYA6U2St8MDKCnAh+xkdQQ+TAmgvZZIEqJIvOrCyAjzF3kVH0MOsANpbtEuA8K8+ygrQgf2EjqCHaQHyHqUZIPoduLIC/CLjrAALAmhxtJkiC/LFBlZWgPrM4Z0VaJgXQHuWdgnYLzawsgJ0Yo6tpciDBQG8t5MESL1TaGBlBdjO7kZH0MOCANrFrUkGTBsoMrCyApyRckCQJQG0S0gCiJ0Vr6wA+WwNOoIelgTQvicJkNpBYGBlBShi8i0QpFkV4Axtpsh4gTcBhQVAbLZuiDUBtIdJAohcJF1hAZzdXo2IRQG0f5MESG0oLLDCAsi2WUgpVgVYQpspsrivqMAKCyDZjoFlWBVAa0QSgI0VFVhhASahI+hhWQBtBkkAzzuCAissQBE6gh7WBYinzRQRdRNQWABht0GRWBdA60ybKfIVLZARygrQlwl9IioKAQJon5EE8JwWElhZAdaweHQEPUQIMJM2U2SXkP1ylBXgqIyLxIkRQDvtIRnwtYjAygoQF4Evgyr5D0kAzwABgZUVYCM7ho6ghxgBViwiGbBJwE1AWQEeY0+gI+ghRgCtPm2mSKz1wMoKcIAdQEfQQ5AA2nCSALnvWQ6srADvMJFvxYUhSoCEy0gGzLL8OFRZAZ5ic9ER9BAlgNYpg2RAb6uBlRXgQnYlOoIewgTQ1pMEKOxjMbCyAkTW3EAd8uYTDsXYIIs3AWUFqOHY/tpciBNAm9KKZMBwa4GVFaApexIdQQ+BAmiXkwQotDZDSlkBPmP90BH0EClAXnOSAWctDY5UVoBX2GvoCHqIFEB7bifJAEtLpSgrwNvsEXQEPYQKoP2XJEBhfQuBlRXgG/YjOoIeYgXQHiEZ0MLC+FhlBTjFJqAj6CFYgDPLSQbcYj6wsgK0YtPREfQQLIDWniRAivkXY6oKMJCx1IhYLdyIbJIBP5i+CagqQMnOkTatn20J4QIkHiYZsN5sYFUF+IlFxo4hxjxPEiDT7HopqgqwtjhXI3QIHcQLoL1GMuAbk1MlVRVgWXGumugQOtggQHxLkgFvmQusqgAfFOf6AB1CBxsE0BqSZopkdjQVWFUBSq6Lf0SH0MEOAbTqpEvAj6ZuAqoKcHVxrnR0CB1sEWDmBJIB35oJrKoA44tzzUKH0MEWAbRapD1FMjuZCKyoAKNLhk3vRKfQwR4BtK9Il4AtJm4CigrwdGkwCdcJs0mAFSNJBpjYQkFRAQaUBpNwZoBNAmjvFVIEaLWN+8CKClD2jqQ9OkYwdglQ+r3XmH15vMdVVIA3SoNJuGuQbQIMqUoy4Fne4yoqQLXSYG+iYwRjmwDEmSLcNwFFBbiuNJiEY4LsE0C7lHQJOOHlO6qaAnjLRkvORucIxkYBEn4kGfA631HVFOBoebJ66CBB2CiAdnIyRYACvnUT1BTgT+XJGqCDBGGnANqNpEtAd66bgJoCHC9Pdgk6SBC2CpD3OMmA4zzH3KykAG3Lk8k3OchWAYgzRQrieI7ZTEUBKuZM7UAHCcJeASovfeHhugkk9ldQgG7lybqhgwRhswDeC0gGXMtzzBfUE+BoZTTploqzWQBtN2mmSNrTPMfsqpwAF1VG64yOEojdAmjJpEtAOs9NYLfRbmXSCVCjMtof0FECsV0A7W8kA7iWTzH6ZCGdAP+sjPZHdJRA7Bdgs/GHtmJaH+U4pNdgIQLpBFhUGe0sOkog9gugjSFdAt7mOeSx8KvRyCZA0fnBEbmybRrggADaTSQDXuA5ZDulBDjtk03UzimicEKA/JYUAQ7x3ATCL0kmmwDf+mRrgg4TgBMCEPcU4boJnAw32kA2AXz31vs3OkwAjgig7acIwC7kOWRPhQQ45ZPtFDpMAM4IMHMvRYDZPI/Jwi1OLJkAiX7h6qLj+OOMANoA0p4iXXkO+UzoFeolE2CuXzjJlox2SACtH0UAdjPPIUOvUC+ZAG/4heuNjuOPUwIUbaII0I1nEZXQk08kE2CHX7hP0XH8cUoA7QBpuuCHPId8L9Qh5RJgnv9TqxS5NhB1TACtKUUA9iXPIb9WQoABAeneRQfywzkB5p2lCMB3ExikggCBX1gtLpcuGOcE0HqkUAyoxnPIX/S/XMglwCcB6a5GB/LDQQG0JykCsDE8h/xCfgESAsdFZkq1jbyTAiR8QxGgfyLHIWeuk16ABkHx7kJH8sVJAbSNpOmCXO0bmmr1CHazMCjeG+hIvjgqgN9rsdA8z3PIwbILsCMonlRTRJ0VgDZTZBjPNtvxL8otwMzMoHgemdYMdlYAbTtppsgcnkPODf55mQR4Suf8uF572ozDAmg1KQKwtTyHrCa1AKusCm4zTgtAmymygGca9ZLDMguwS+f0+nMvjGMfTgugHZ1OMWAwzyEflliA53RPz8qmSYJxXADttxQB2AieQ/5DXgH0pzD0RMc6j/MCaB9SBGgZz3HEMwFXFYkE0J/GJtErYYAAdbsRfif7leeQn8sqQJH+IimeM+hglQAEKN08w5DUO3kOeVBSAX4OcXb/jw5WCUIAn6lyYaiSz3HE7/yeL8gjwJwQJ/cJOlglEAHyXyT8Vlad55CvSynA6FB3uxhplguDCKD/CieQ1KEcR/R2l1GAu0Ke3MfoaBVgBNCup1wCxg/kOOL2AgkFaBvy3K5BR6sAJEDSeIoBXXgO6fOmURYBvItDnlqrmehw5YAE0DqQbgI8C6rkfSqdAA3CnBvXwCcbQQmg+5IkiHU8fycdK1+8yiJAuH1T/oEOVw5MgKJdhN/MxvIc8hbJBMirEubMUngGPdgITADtJ8pMEc8RjiMmVGxRIIkAR8KeGtfSePaBE0CLpVwCFvMsqdIjRioBPgt7ZifQ8coACrBiK8UArl/eWyYBEg6Hv7hxrY1oG0ABtMcoM0U8pzmOWD5fVA4BJhqc2UfogKUgBdByKJeAXVM5jlj2wUIOAeYYnFgLdMBSoAIknKMY8DXPIb+SRoCkVkYnVgcdsQSoANpGyp4ingEcRyyaIIsA/zU8sS/QEUvACqB9RLkEbOK5CRxJlUSALYbndUiGlQLAAuRdTTEglueQq+UQYArhWTfX2pg2ARZA2z6KEMBTi+OISdOkEOABwnnNR4fU8AJo91AuAbN4ZlQ3TJVAgIQFlPPaiI4pgQDedEqlevMccoYEAjSinBX7DzqmBALQZooU9uE5pwewNS3hIOGkGOu2Ap1TAgECx3Trs3UexxHxA+6OkRbGZOy36KAyCKBdQymVXEsrGfE15ZSK+QEdVAoBEg8TQhTWRpeKg6mziQIwnodctiCDANqtlFKd5bkJgCHd1UrJRkeVQgDtX5Ra5aBrReccWYBC9EthOQRYs4cQI6UHuFZk+pD7z9jL4KxyCKC3zkswLYaAi0WFNPWtnOngFwKSCKC72FcQT2JrReXiGMrJVACeJyqLAPHTCEFSnsAWi8jfefrP1iVAw8oiAG2myA8q3ASSDnEJwO6FppVGgBDL/gawHlosGgspJ+LDWZ59k4UjjwBFvQhRMl9CFovEkJacArCLkHHlEYA2U+Q66W8CtEWwfIEOC5BIAO1VSrXeQlaLQN4ibgGgz4NlEoA0UySzI7BaBL7k7z+7AJhXJgG02pQv0FtGA8tliLeNCQHYT7jAUgmg/ZVSrW9x1TLmCjP9Z+m4wHIJQJopktkJVy5DKCegA24TEbkEoO0pIvFN4CJz/Qd+EZBMANpTlHawchnxKSW+Hg1RiWUTYPQ+QqBW21DlMsBoQnBozqEeB8omgBZHmSmyT6IF933wXmdaAPYUKLN0AmjPUsr1LKhc4XmYEj0Eg0AvBeUTwHs7IZKUN4EhEywIgFozSD4BtItbEzKdgL5C0+d1Qu7Q3M+zLqo4JBRAu4RSr9ch5QrHTMrAxjBgBr3KKEDQFjB6FByD1CsMl1rrPxsF2UVCSgHOLCek6i7ZTSCRcyBQMPsRsZMIwf7ueKp7KfU6jqhXaFZb7T/LRYx2GU0YigfY7DibUK+07wD1CskTlOEsBuxABCfs4FTT+VRL7ifU6xOZbgLdCYENuVnO4DwLtIiC9FpVkuV2yXkNeZFnYVxB1DBM1RoyK3MGoV7y3ATmUUa0EgBMFNtueO9aCilpfktCvZBjqfxoIqb/LOWk89nfNMhUeB+mpqSNpT7HZAvkjOWvgBXcAQhvsEZPb1RVPyPU6xB6dnUZ1QhRifzsfPorwq5nMx+2LkPfvYR6vY1K58tQcf1nVXg2TRbE8TAGXLcGV9fTlJWWJFhtc5Klt4CBrAacwc9podKsBPh4nv8Q6rUcvw/zGyL7z7dBgiie+7fuJ64Ff8E+apk0iFCwrtCIxZzMJKTkgGtZVGHUuiPoersgB765YZ9CQsHaYzN6d4jtP2N/xpzI0Y/2+WxxcGrGUBkGXw8n1Gv2BmhE/smgRsTA1sFIeCa53RurXq1xfOISaE3PM48y0wq6B+Nuykq3nHyDXTREKp6g3GAfBgZcKb7/yiyG5AjrCfWaXRcWL9mO/vOtjR3h5M0nFOxDVLoNlLFLJhjEs0tOhHOMMlOkMSgcaZ1rM0iwk4A0XE6o12HMp1YrM0HC48HNF5aOvOaEglVDJDtKXhScn1NJ6LrLw3NphIKNcT5XnpBhYKGYgS67RBjvwchY/0THY5E2PTRPMrrsEvEIoV6O7xRVh7L3tQUKbkOXXR5IM0VudTbTpEX29p+xrZC3QnLSnlCvYeMcjWR9Iogh/dBll4hmhHrNcTKQmHHg4Um9Al12eSDNFFnrXJ7vbPwGeJ7Z36HrLg+UjaWq5DuVZsU5J/rPWBv3kXAlrxHqNdipMKS17UUAmTEsJ/EtCfUa4UyWK53qP2OXoOsuDw0JM0UWOLJr7H2UR5OCyHDfDFdSnVCvXx3IMekH5/rP2HjgwHzJ6LvYuFypQ+3PYTSZTjCfyDA4Uw6OEGaKTLP9LZqoiaBkHF+iR16+IpSrus0ZOgtYCoQT8NaCErFipHG1bL4JTLFhFLARMR3QhZeG+oQ9RcbbueLiQIKC4lkOmqIvIR8QytXFvl+fZ8socGMGQedoysS8FsbVSrVvPN3LmP4zdrs7V6ScHoRhGOvsmtR4Lar/jF2PLrw0UFZkXWXPr55ImatqF5ilhCUk4UfjYnmO2PGbO1KWMbcP+ZbHBnFysnGxFtuw4N7ultD+s1x3eEg5NxKq1Vb4bx1oaktIkRS474XKyHvcuFge0cubDjmI7j9jh2XcJwXBdsJ0wV1ix9LkvYLufgkt70aXXhKOE4oldnplW3Tvy+iFXQ1FGrwXGNfKI3JT9t7ozldw1tmx79KymzBTZJO4mwBpKztn+BGzt5R0JBNq9YCoX/YCZdlip+juzhcqhbCxVO57Yn7VGOdHAIRjJWzxXqnY3N+4VA+tEPGb1hJeQTvKBe41oATK3KzeAn7PCMELgboGiOIm40oJWG1Lwv4zdtA1QKPtKTLIaqXuzEA3W5fbXQOK6Uz4cD7c2q+QtP/uXaCM/caFiqlj5RdcJOP1v4x0wAZj0jHwlHGhWlj40tTY5kVgLHFOlvWckQwgzBQxP5LmY+QAIGMeOoouvwT0M65TYW2Tx76HsmMNksXu22Ft0kPGdWoxxNShF6L7a8we2MYC8nCA8JjWzOLrXsp+RXBmN0DXHw9hpH4K/x9KwmB0b2lkXImuP5x5Z43L1Ib3JjDze3RnqeTegG4AHMpMkZ58h9xQFd1XDvrloTuA5knjImW+xHPAbUI3grSdZtH+UDDhG+MiXcdxEzjQDd1STh6P9mFiGwkP7N8iH+1LWR//h2ZvJ3QLwHxrXKPMjsRjZcn++EePnY3QLcBCmSnyI2mppUlz0L00R+5CdA+wbN9pXKMmhOPsJnyckJRXovujYE3jCmUa3yjrtES30QKf4jZPlADvHYQKGX1hTlbv458vVX5BdwHJ04S5++3CHiFBiaf/4ShciO4CEsIm3q3CrbW12dYtwByiWjQPEyLsKbIv9E3gnWHo5glhE/XbbgSSeNi4PlkhftabJdvkD7OkoTbRlYDGxuUpiNP9yfwP0X0TyNLo3WSkmnF1Tnh1fq7+XnTThDKrB7oRKPJfNK5O8FJb3ix5x36bIyPLa6J6kcBQ45kiBccCfmYzZVdS1fhNtL4fvN64Ns39/zom7kE3yxamRen64knjjWtz3Of/T+0i09IPIkkdG52fBTsYN3Tn+ZW2ekDWfneIdSLXSFKHVcaV2VF+E0hYGGmf/vwpjI3GpUSKdhlX5trS/9nxMnSHbOeHaJw48ovxTJFDTxf/+V8q88RPURTGRuEogVjjuqR7O55D98YhZp1G98NxViwyLkuzyL77+5I6J+qeCTwWDRd3DoaNQXfEaXLQJZeNldvRLXGWhHPoisvG5Jzo+jC4kbCnSJSxdy66KY7yEbreErIyDt0VB8m7Gl1uCcl42fZ9teVhWwG63DIyOyt6tp+8B11sOdkUNUMGvRLs8SQl6dEyYOy7Q+hSS0pq9hR0b5zhc3SlpcWTHYdujiNcgy60vKQsPYPujgNQZopELQWxiej+2M/N6CpLTau2kb7W8E8r0TWWnJQ591mvsrTUcttvjCd7I7pP9uCd+z66torg6XoXulniSWi/CF1XlWizLLLeFSdlEWaHuPiyJ2cNumvC2NbPfQ1kgoLqj6E7JwJv50dUXOZRDrYkq34niH99EbqIatN6qcpLztZeOgpdQPXxpLcvQjfSFPk3bEXXLlJI+3WAastL5B2Z4Q4CFcm02Dh0TznYmLMOXbAIpGqWGq8L1yybjy5VpJK7Y5nsDwfWfH47Yc84F9PEHLxkM7rJITlTM13ujV0jA0/VHLMbr9rJd1lu952j19fvyDSaPOF00zbokkQdBekL5bgQJDaeMx1djGhl3epb46HNnzm0adVIXdRNEXJHLk1+GtL8oloL06NnUQ+5GbT04zhHm1/3+aafRspi7pHCofn9Gm9woPdDOi2bM9K97EvKtGY9n99u23uDendl/XqZ+4cvPTvf35/VYbfQ1vet83DT71uiT8yFh1Ftspt+PsDqTWFqp7Uf7T+xAH0yLqbJmHDitQ9qzn3mDMdW3ZqWP+V0+xpfrGwzGx3fRRytd+3retWrNbKubTziSO1jcXH1ihld/FW++J+jcXEvNWj4c/LxhcNX/XPH1mHRc5//H7NkgbjlCzQwAAAAAElFTkSuQmCC;" vertex="1" parent="51">
                    <mxGeometry x="35" y="90" width="35" height="35" as="geometry"/>
                </mxCell>
                <mxCell id="67" value="&lt;font color=&quot;#999999&quot;&gt;CloudFront&lt;br&gt;&lt;/font&gt;" style="text;strokeColor=none;align=center;fillColor=none;html=1;verticalAlign=middle;whiteSpace=wrap;rounded=0;" parent="4" vertex="1">
                    <mxGeometry x="35" y="200" width="80" height="30" as="geometry"/>
                </mxCell>
                <mxCell id="7" value="" style="sketch=0;points=[[0,0,0],[0.25,0,0],[0.5,0,0],[0.75,0,0],[1,0,0],[0,1,0],[0.25,1,0],[0.5,1,0],[0.75,1,0],[1,1,0],[0,0.25,0],[0,0.5,0],[0,0.75,0],[1,0.25,0],[1,0.5,0],[1,0.75,0]];outlineConnect=0;fontColor=#232F3E;gradientColor=#F54749;gradientDirection=north;fillColor=#C7131F;strokeColor=#ffffff;dashed=0;verticalLabelPosition=bottom;verticalAlign=top;align=center;html=1;fontSize=12;fontStyle=0;aspect=fixed;shape=mxgraph.aws4.resourceIcon;resIcon=mxgraph.aws4.certificate_manager_3;" parent="4" vertex="1">
                    <mxGeometry x="15" y="340" width="50" height="50" as="geometry"/>
                </mxCell>
                <mxCell id="72" value="Certificate&lt;br&gt;Manager" style="text;html=1;align=center;verticalAlign=middle;resizable=0;points=[];autosize=1;strokeColor=none;fillColor=none;fontColor=#999999;labelBackgroundColor=none;sketch=0;" parent="4" vertex="1">
                    <mxGeometry y="391.74" width="80" height="40" as="geometry"/>
                </mxCell>
                <mxCell id="91" value="&lt;font color=&quot;#b3b3b3&quot;&gt;Route53&lt;/font&gt;" style="text;html=1;align=center;verticalAlign=middle;resizable=0;points=[];autosize=1;strokeColor=none;fillColor=none;" vertex="1" parent="4">
                    <mxGeometry x="75" y="391.74" width="70" height="30" as="geometry"/>
                </mxCell>
                <mxCell id="96" value="" style="edgeStyle=none;html=1;strokeColor=#141414;strokeWidth=2;fontColor=#B3B3B3;entryX=0.5;entryY=1;entryDx=0;entryDy=0;entryPerimeter=0;" edge="1" parent="4" source="28" target="12">
                    <mxGeometry relative="1" as="geometry"/>
                </mxCell>
                <mxCell id="99" value="" style="sketch=0;outlineConnect=0;fontColor=#232F3E;gradientColor=none;fillColor=#4D27AA;strokeColor=none;dashed=0;verticalLabelPosition=bottom;verticalAlign=top;align=center;html=1;fontSize=12;fontStyle=0;aspect=fixed;pointerEvents=1;shape=mxgraph.aws4.cloudfront_functions;" vertex="1" parent="4">
                    <mxGeometry x="85" y="133.6" width="30" height="30" as="geometry"/>
                </mxCell>
                <mxCell id="100" value="CloudFront&lt;br&gt;Functions" style="text;html=1;align=center;verticalAlign=middle;resizable=0;points=[];autosize=1;strokeColor=none;fillColor=none;fontColor=#B3B3B3;" vertex="1" parent="4">
                    <mxGeometry x="60" y="93.6" width="80" height="40" as="geometry"/>
                </mxCell>
                <mxCell id="63" value="" style="edgeStyle=none;html=1;strokeColor=#141414;strokeWidth=2;fontColor=#999999;" parent="1" source="59" edge="1">
                    <mxGeometry relative="1" as="geometry">
                        <mxPoint x="892" y="329.30407407407404" as="targetPoint"/>
                    </mxGeometry>
                </mxCell>
                <mxCell id="59" value="&lt;font color=&quot;#b3b3b3&quot;&gt;desktop&lt;/font&gt;" style="sketch=0;outlineConnect=0;gradientColor=none;fontColor=#545B64;strokeColor=none;fillColor=#879196;dashed=0;verticalLabelPosition=bottom;verticalAlign=top;align=center;html=1;fontSize=12;fontStyle=0;aspect=fixed;shape=mxgraph.aws4.illustration_desktop;pointerEvents=1" parent="1" vertex="1">
                    <mxGeometry x="972" y="302" width="60" height="54.6" as="geometry"/>
                </mxCell>
                <mxCell id="64" value="&lt;font color=&quot;#999999&quot;&gt;microCMS&lt;/font&gt;" style="text;strokeColor=none;align=center;fillColor=none;html=1;verticalAlign=middle;whiteSpace=wrap;rounded=0;" parent="1" vertex="1">
                    <mxGeometry x="827" y="354.86" width="80" height="30" as="geometry"/>
                </mxCell>
                <mxCell id="103" style="edgeStyle=none;html=1;strokeColor=#141414;strokeWidth=2;fontColor=#B3B3B3;startSize=6;endSize=6;endArrow=none;endFill=0;" edge="1" parent="1" target="102">
                    <mxGeometry relative="1" as="geometry">
                        <mxPoint x="-29.068300699440897" y="326.29999999999995" as="sourcePoint"/>
                    </mxGeometry>
                </mxCell>
                <mxCell id="70" value="GitHub" style="text;html=1;align=center;verticalAlign=middle;resizable=0;points=[];autosize=1;strokeColor=none;fillColor=none;fontColor=#999999;" parent="1" vertex="1">
                    <mxGeometry x="425.11" y="30" width="60" height="30" as="geometry"/>
                </mxCell>
                <mxCell id="76" value="Parameter&lt;br&gt;Store" style="text;html=1;align=center;verticalAlign=middle;resizable=0;points=[];autosize=1;strokeColor=none;fillColor=none;fontColor=#999999;" parent="1" vertex="1">
                    <mxGeometry x="459" y="240" width="80" height="40" as="geometry"/>
                </mxCell>
                <mxCell id="85" value="" style="edgeStyle=segmentEdgeStyle;endArrow=classic;html=1;curved=0;rounded=0;endSize=6;startSize=6;sourcePerimeterSpacing=0;targetPerimeterSpacing=0;strokeColor=#141414;strokeWidth=2;fontColor=#999999;exitX=1;exitY=0.5;exitDx=0;exitDy=0;exitPerimeter=0;" parent="1" source="18" target="59" edge="1">
                    <mxGeometry width="100" relative="1" as="geometry">
                        <mxPoint x="650" y="210" as="sourcePoint"/>
                        <mxPoint x="940" y="230" as="targetPoint"/>
                        <Array as="points">
                            <mxPoint x="1002" y="235"/>
                        </Array>
                    </mxGeometry>
                </mxCell>
                <mxCell id="87" value="" style="edgeStyle=none;html=1;strokeColor=#141414;strokeWidth=2;" edge="1" parent="1" source="86">
                    <mxGeometry relative="1" as="geometry">
                        <mxPoint x="720" y="330" as="targetPoint"/>
                    </mxGeometry>
                </mxCell>
                <mxCell id="86" value="" style="shape=image;imageAspect=0;aspect=fixed;verticalLabelPosition=bottom;verticalAlign=top;image=data:image/png,iVBORw0KGgoAAAANSUhEUgAAAMgAAADICAYAAACtWK6eAAAACXBIWXMAAAsTAAALEwEAmpwYAAAAAXNSR0IArs4c6QAAAARnQU1BAACxjwv8YQUAAAvBSURBVHgB7d1LbBXXHcfx/9xrpKoNkRGPupeN2RQruOFGDVGWGDbdtNBFs2hAIWqrJHQBkapWVRABlUrZAa3qgpBK2qZRlzZs0gXgLFJFgqoTCRpfNrgLHBRYEEEWAftOzn/sY8b2nbnzOHPOmTm/T+T4dR8Y3y9nnmc8UmRkpD3cWEM7vS5tJ492irdBj2gwCGiQAMrk0QwF4ZsvXm+fdLs0NT3tz5ACHhUwPNwe/OZTdMjz6ID4ww0TgC04mi5NzM/T6SKx5ApkZLS9s0n0tvhwJwHYLqB3RSjH84SSKRBejBoYoJMB0V4CqJocoTTT3nB0tH2o0aR/ijjaBFBFHrXFa3jvxg1DX9y9e8dPc5dUgWz7XvukeHdMvH2DAKptUKwz7920cWhQRPKvfjdOXMTilfBvPUVXCKMG1JO/ZoDGfN+/H3eD2EAQBzgiMZJG3L0QBzii/XgufK331HMdZHGdA1uqwBVDceskqwJ55pn2AbES8w4BuMSjFzdsHPri3t07Hy//cgTv52iuEcMN9oqDm+7Pz9Fz0f0ky9ZBmk2xdxxxgLsGG2JHePQLSyNIOHoM0C0CcNw80dj0dX+KP14aQcLRAwBo8TjDUDiCYPQAWE7sG1nH+0bCEUQsdx0mAFjyaG6hiTAQsVl3DwHAEtHEK+F7LF4B9Nad94YbjQZOegLoxfOCsYZYyMLxVgC9iDYaYjPWdgKAVbiNhvj/MAHAaqKNBg4tAYgR0GCDACAOAgFIgkAAEiAQgAQIBCABAgFIgEAAEgwQGLF27Vrau+eHtHVka/h5Z7pDl69M0e3bswT28LaNtgMCbTiMg2+8Rvv3v9zz++PjZ2j8z2cJ7NDctGnoGIEWHMf58+do966x2Nvs2PE8tTa36PLlKQLzEIgmMo6RrVv73nZELHYhEjsgEA2yxCEhEjsgkJLliUNCJOYhkBIViUNCJGYhkJKoiENCJOYgkBKojENCJGYgEMXKiENCJPohEIXKjENCJHohEEV0xCEhEn0QiAI645AQiR4IpCATcUiIpHwIpACTcUiIpFwIJCcb4pAQSXkQSA42xSEhknIgkIxsjENCJOohkAxsjkNCJGrhnPSUqhCH5C2/ujcUgEBSqFIck5MX6a0jRwnUQCB9IA63IZAEiAMQSAzEAQyB9IA4QEIgKyAOiEIgESbiGB8/m2uiOMShB6YeXWQujjNLn/OMi2kgDn2wJ53siOPq1Wt8Ye5wZsUkReJotb5Du3ePhXvb+Weenf2MIJnzI4gNcTz5+sLX4kaSvHFs3tyiE787viq+27OzNDlxAXMBJ3B6BLEpDiluJMkbB48W7//jb7Rly5ZV33ta/PyYCziZs4HYGIe0MpIicZz/y7nwZ+13O0TSm5OB2ByHJCPh9YQy44jeHpGs5tz1QaoQR1FZ44iamLxAR468TbDAqREEcaS7P0aSJ5wJBHFkexxEssCJQBBHvsdDJA4EgjiKPa7rkdQ6EMSh5vFdjqS2gSAOtc/jaiS1DARxlPN8LkZSu0AQR7nP61oktQoEceh5fpciqU0giEMflyKpRSCIQz9XIql8IIjDHBciqXQgiMO8ukdS2UkbEIc9du8ao1arRXVUyUAQhz0ePHhAB179Bc3OzlIdVS4QxGEPGUen06G6qlQgiMMeLsTBKhMI4rCHK3GwSgSCOOzhUhzM+kAQhz1ci4NZHQjiUI+3Nv39vfcpKxfjYNbOrIg41OM45CZZfsGnnQvY1TiYlXvSEYd60ThY2rmAVcTBcwI/ePCQqsi6EQRxqLcyDqnfXMBF4tix4/vicV9fFiBHOTl5gSYmL1JVWDWCIA714uKQ4kaSInH85te/oqNHj4STZkfx57t2jdHap9fSRx/9m6rAmkAQh3r94pBWRlIkjt+fOE4vvfSTxNtsf/bZyhzgaEUgiEO9tHFIMhL+cxaJY8+eH6W6bVWOAjY+Ny/iUC9rHFF8VG6e+2WJI8r2uYCNjiCIQ70icTBevMoqbxzM9pHEWCCIQ72iceRRJA7J5kiMBXL2zJ/ClTVdEId6KuKQbI3EyKEme8Vfar8dVCohDvVUxiHx6+KEeFybGAlk3/6fki6IQ70y4pBsi0R7IPzC0bXegTjUKzMOyaZIjASiA2/XRxxq6YhDsiUSIyvpP//Zq1Q2eZjD1Wv/obIhjnLYsOKuPZBHjx7Rjheep80apomRGwLKjARxlMt0JEZGEE/8xwet6VBmJIhDD5ORGAlkutMRi0Cbwx9chzIiQRx6mYrE2I7Cy5evVDYSxGGGiUiMHotVxUgQh1m6IzF+uLuJSDqdm3Tr1gxlhTjswL8HPgT9moYtlFbMavLWkaM0qek0TH6eSyLKrBCHPfhclfdyzMyShzVnFOoYSTgOjjErxGEPjoP/bvIclp+HVeeklxkJ4oiHOOJZN+1PGZEgjniII5mV82KpjARxxEMc/Vl7CTYVkSCOeIgjHavn5i2ydQtxxNMdx/R0vlkZTcfBrL+IZ56RBHHE0x0H/y5ef+OXqaY5jbIhDlaJq9xmiQRxxDMRh/xdpJ0LmNkSB6vMZaDTRII44pmMQ0oTiU1xsEpdJz0pEsQRz4Y4pKRIbIuDVSoQ1isSxBHPpjikXpHYGAerXCAsGgniiGdjHFI0ElvjYMbn5i2CT+znuV2zQhzq5f2Hat++l8NrhtgYB6t0IHkgDvXyxlEFlblOugqIQ706x8GcCQRxqFf3OJgTgSAO9VyIg9U+EMShnitxsFoHgjjUcykOVttAeOpRxKGWa3Gw2gZy+/astqlhEEd9VXJPelo6JoJAHPVW60BYmZEgjvqrfSCsjEgQhxucCISpjARxuMOZQJiKSBCHW5w6FosVmQgibxxFNjUjDrOcGkGkPCNJkTjOnz9HG9avzzyrPOIwz8lAWJZIisbBV/XNeukFxGEHZwNhaSJREYeUNhLEYQ+nA2FJkaiMQ+oXCeKwi/OBsF6RlBGHFBcJ4rAPAlkUjaTMOKSVkSAOOzl3Tno/Bw++RhMTF0uNI2p8/Ex45DHisBMCUSBvHCYgjmyc21GoGuKoNwRSAOKoPwSSE+JwAwLJAXG4A4FkhDjcgkAyQBzuQSAZ8ATLnembZDvEoQ72pGekYyKIIhCHWggkB1sjQRzqIZCcbIsEcZQDgRRgSySIozwIpCDTkSCOciEQBUxFgjjKh0AU0R0J4tADgSikKxLEoQ8CUazsSBCHXgikBGVFgjj0QyAlUR0J4jADgZRIVSSIwxwEUrKikSAOsxCIBnkjQRzmIRBNskaCOOyAQDRKGwnisAcC0YwjIc9bmlkxik/IOnX6j3Ty1B8I7ICJ4wxptVr0gohk68h3w887nZt06dKVMBKwBwIBSIBz0gESIBCABAgEIAECAUiAQAASIBCABAgEIAEHcp8AoKcGeQgEoCePZhoUIBCAngIRSED0IQHAKqKNT3gRyycAWK1LfqP7mKYIAFbpdmmqMT3tz/DKCAHAE2L9g9sI94N4Af2VAGBJ4NEkvw8DGRigUwQAS7pzC02Egfi+z5t6pwgAePHq3XDVgyKHmnhExwkAaH7+SQtLgVy/7k+JSCYIwGWR0YMtO1hxbo7eJBybBa4SW66iowdrRj+5d+/O/U0bh74Sy1s/IADHBAG9+emn/lT0a82VN7p7987H3940tE58+CIBOCIgOv2/G/47K7/uxd1h22j7v+JdmwDqLiD/xg3/uV7fij1has0AjYl3OE4L6k3E8eWX4Wu9Jy/pvu12e/DxHF0hjCRQR4txzMz4sRumPEphdLR9SiyjHSKAmgjXOa77h/vdrkkpfP75nQ82bhj6v8cjiUeDBFBRHu/GCOi3YoX8WJrbpwqEia1b/vr1Q5MNj9aJZ8EiF1QO7wgX+/p+LDblfpDhPtmNjLSHm006Ju79CgHYj48SOc5Hi1BGuQKROJRGgw57Hu0RjzRMALbwaIZP43j4kE4lrYT3fxhFFmPZKT5sew3aHgYTIBooF69TBF64XnE/6NKHYqXB57Nko8dTFfE1PN4DfL0o1TIAAAAASUVORK5CYII=;" vertex="1" parent="1">
                    <mxGeometry x="842" y="304.86" width="50" height="50" as="geometry"/>
                </mxCell>
                <mxCell id="89" value="" style="shape=image;imageAspect=0;aspect=fixed;verticalLabelPosition=bottom;verticalAlign=top;image=data:image/png,iVBORw0KGgoAAAANSUhEUgAAAgAAAAIACAYAAAD0eNT6AAAABHNCSVQICAgIfAhkiAAAAAlwSFlzAAAQKQAAECkB9XjiDwAAABl0RVh0U29mdHdhcmUAd3d3Lmlua3NjYXBlLm9yZ5vuPBoAACAASURBVHic7d13uCVVlbDxt3M3NLmbDAKi0kQRRaIJRUVFxIQYEB1zxBnTZ0AdVBidkWGcMcyo6GAWHcEEGEYcQRAJkkRaBFFSk2mgc39/rNt0uOmcc6tqVXh/z7OeCw19zzq76uy9TtWuvUGSJEmSJEmSJEmSJEmSJEmSJDXDpOwEJPVtE2BLYANg5lDMGuGfR/qzdf8ZYNFQPNjHP6/5Z/cBtwB3lfaOJRXOAkCqh5nEoL5mbDXCn20JTE/KcTxLiEJg3bh5hD9blJSjpCEWAFI1NgDmAbsO/dyetQf5jfJSS3EPaxcHfwGuBq4a+nlfXmpSN1gASMXajNWD/K5r/PO2mUk10F9ZXRBctcY/35GZlNQmFgDSYLZm7YF+1c+5mUl1wALWLghW/bwpMympiSwApPHNBh4PHDgU+wIbp2akdd0NXAj8eiguABamZiTVnAWANNy2rB7sDwT2AqakZqR+LQcuY3VB8GvitoKkIRYA6rrJwJ6sPeBvn5qRyvIXVhcD/wdcDqxIzUhKZAGgrpkFHMDqwX5/Yoa+uuc+4HxWFwXnEesbSJ1gAaAu2Bx4NnA48DRgvdx0VFMPAOcAZwA/AG7LTUcqlwWA2moeMeA/l5jANzk3HTXMCmIi4feJguDq3HSk4lkAqC2mAAcRg/7hwM656ahl5hOFwBnE/IHluelIE2cBoCbbAHgGMeAfBmyam4464k7gR0Qx8BNctVANZQGgppkLvJAY9J9MfdfFVzcsAX5BFAPfJhYqkiQVZCpxL/97RIe70jBqGEuIc/S5xDkr1ZpXAFRnewDHAi8lZvJLTXEb8FXgS8R6A1LtWACobjYFjgZeCeyTm4pUiN8BpwJfI+YPSLVgAaA6mAI8nRj0DwdmpGYjlWMxMVfgVOAsfJJAySwAlGkXYtB/BbBVbipSpW4GvkIUA3/ITUVdZQGgqs0AXgb8HbBfci5SHfwG+C/gNOIqgVQJCwBVZWPgDcBbgS2Tc5Hq6BbgFOAzxPbGUqksAFS27YC3A68FZifnIjXBQuDzwMnAjcm5SFLf9iDucfrcvmEMFkuIz9AeSFIDPJlYJjW78zSMNsWPiM+WJNXKFGJ53t+S31EaRpvjt8RnbQrSBDkHQBMxi1ip7x3Aw5NzkbrkT8C/ECsNPpicixrKAkCD2ICY2PcWYnMeSTkWAP9GTBh0V0JJpZkGvBm4lfxLoYZhrI5bic/mNCSpQJOAo4D55Hd0hmGMHvOJz6pXdyVN2CHAReR3bIZh9B4XEZ9daVRWiRrN3sCJwKHZiUga2NnAe4BLshNR/UzOTkC1syOxj/nvcPCXmu5Q4rP8VeKzLT3EKwBaZQ7wfmK9/unJuUgq3hJin4ETgNuTc1ENuJiE1gfeDXwTeCKeE1JbTSF24Hw9MJW4MrA0NSOl8gpAd00ituT9CO7OJ3XRLcAHia2IVybnogQWAN20O/A54IDsRCSlOw94HXBFdiKqlpd7u2UW8Y3/y8AOualIqontgNcQ/cN5wLLcdFQVrwB0x6HEBKCdshORVFvXEROBz85OROXzMcD225x4BOgsHPwljW0noq/4KtF3qMW8BdBeqyb5fR/YNzkXSc2yB9F/3IGLCLWWtwDaaR4xye/g7EQkNd6viEmCV2cnomJ5BaBdZgLHA/+Nl/slFeNhxCTBGcD5OEmwNbwC0B6HEJP8HpGdiKTWupaYJPiz7EQ0cU4CbL6Nicf6foqDv6RyPYLoa75M9D1qMK8ANNvBwGnA9tmJSOqcvwAvI+YIqIGcA9BMU4EPAV8ANslNRVJHbQS8guiPfgWsyE1H/fIKQPPsRDyju192IpI05DfAS4mFhNQQzgFolpcBl+LgL6le9iP6ppdlJ6LeeQWgGTYkZvgfnZ2IJI3ja8STAvdmJ6KxWQDU3wHEJf8dkvOQpF5dT9wSOC85D43BSYD1NQX4AHAqsGluKpLUl42BVw798/8BK/NS0Wi8AlBPDyO+9R+YnYgkTdCviasBN2QnorU5CbB+jgIuw8FfUjscSPRpR2UnorVZANTHdOA/ga8Tz9dKUltsRPRt/0n0daoBbwHUwxbAd4kJf5LUZr8GjgRuy06k6ywA8j0G+B9gu+xEJKkiNwLPBS7JTqTLvAWQ68XEDFkHf0ldsh3R970wO5Eu8zHAHJOAE4BTgGnJuUhShmnAC4hx6H9zU+kmbwFUbwNiB7/DsxORpJr4HvBy4P7sRLrEAqBaOwFnALtlJyJJNfN7Yl7A9cl5dIZzAKrzFOBCHPwlaSR7Ar8FnpCdSFc4B6AabyJW9pudnYgk1dh6xI6CtwK/S86l9SwAyjUN+Cyxpr9XWyRpfFOA5wBzgbOBFbnptJdzAMozh1jc5+DsRCSpoX5OPClwV3YibWQBUI5tgXOAXbITkaSGuwJ4GnBLdiJtYwFQvJ2BnxI7+kmSJu5PwFPxCYFCeV+6WHsSq1s5+EtScR5O9K3zshNpEwuA4uxHrGa1RXIektRG2wDnAvtkJ9IWFgDFeCpx2X+T7EQkqcXmEBMDXSugABYAE3cE8ANg/exEJKkDNgR+AhyWnUjTWQBMzCuA7wAzshORpA6ZRWyj/uLsRJrMhYAG92bgc1hESVKGKcCRwM3Axcm5NJIFwGDeD3wCH6OUpEyTiFUDHwDOS86lcSwA+vdJ4H3ZSUiSHvI0YDoxQVA9sgDo3WTg88Slf0lSvRxM7B/w4+xEmsICoDeTgC8Cr8pORJI0qn2BLYknszQOC4DefAp4fXYSkqRxPZbYVvin2YnUnQXA+I4H3pOdhCSpZwcCS4jlgzUKC4CxvQ04MTsJSVLfDgFuAy7KTqSuLABGdwzwGXzUT5Ka6jBgPnB5diJ15OA2sucB38YCSZKabhmxYNCZ2YnUjQXAcE8lZpC6vK8ktcMi4mrAL7ITqRMLgLXtR8wcdWMfSWqXhcS8gAuzE6kLC4DV9gB+iVv6SlJb3Qk8EbgiO5E6sAAIDyceF9kyOxFJUqluBg4CrstOJJsFAGxDDP47JOchSarGn4ki4KbsRDJ1fSvbzYCzcfCXpC7ZETiHGAM6q8sFwAzisZBdsxORJFVuV2IM6OwTX11+zv2/iH2kJUndtB2wLfD97EQydLUAeAfw7uwkJEnpHg3cB5yfnUjVujgJ8OnAD+lu8SNJWtty4FnAWdmJVKlrBcAjgQuAjbMTkSTVyt3A44E/ZidSlS5NAtwYOAMHf0nScJ0bI7pSAEwBvgE8KjsRSVJtPYoYKzpxi7gTbxL4JPDy7CQkSbW3MzCbWCOm1bpQALwSOCk7CUlSY+wP3ABcmp1Imdo+CXB/YvvHzi70IEkayGLgybT48cA2FwDbAr/FDX4kSYO5BXgc8NfsRMrQ1kmAs4iVnRz8JUmD2pIYS2ZlJ1KGthYAXwIek52EJKnxHkOMKa3TxkmAbwTelZ2EJKk1dgcWELeVW6NtcwB2Iw5QKy/XSJLSPEjMB7gyO5GitOkWwAzgazj4S5KKN4sYY1rzVFmbbgH8M/Dc7CQkSa21BbAB8JPsRIrQllsAzyR2+GvL+5Ek1dNKYufAH2cnMlFtGDA3By4f+qmx3Qb8YSj+SNwC2hTYbOjnqn/eZuinpOa7F/gd8Bdi3/tVsXDo50xiktvuwB5EP6Cx3Ua01W3ZiUxEGwqAHxFXADS6o4lq9e4+/s4jgAPXiF1ox/kitdkS4PfAhWvEH4hvrb3aGvg48IrCs2uXHwOHZScxEU3v0N8K/Gt2EjV3A7Aj/XUAI9kUOGAongHsPcHfJ6kYfwFOB75LPAW1uIDfuS9wQQG/p+3eBpySncSgmlwA7ElUt62ZkVmSk4D3lPB7HwUcBbwEt1mWqvYnYtD/DuU9m/5H4kqgRreYKJZ+n51Il8wEriC+1Rpjx6MHbON+7E0UGjckvD/D6EpcA5xANZ9pgA+V/H7aElcQY5Iq8u/kH/QmxNWDNvCAJhHzBf4NuGOCuRuGAcuIb/pPonqP6DPXLse/D9jG6tNzyD/YTYnjB2zjIswCXgVcMkJehmGMHQuAjwHbkesC8tuiKfGcAdtYPdqS+GBkH+imRF3uzR8IfIOYoZzdJoZR5/gd8Erqc0n5reS3SVNiAe5AW6ofk3+QmxIXD9jGZdoa+DBwM/ntYxh1iSXEErMHUD9bELchstuoKdH4xYHq6mjyD26Tos47Ik4njuf55LeTYWTFzcREu62ot5+Q31ZNiqMHa2aNZhPgVvIPbJPiYQO1dPX2AU4FFpHfZoZRRZxHDBLTaIZjyG+zJsWtxJilgvwn+Qe1SfGHwZo51RzgvcSiJtntZxhFxyKi0N2H5tkCWEF+GzYp/nOgltYwB+PJ1298eqCWrocpwJHAueS3o2FMNJYDX6E5V+RGcyn5bdmkWEGMXZqA6cCV5B/MpsURgzR2DT0V+A357WkYg8SPgb1oh0+Q355NiyuJMUwDej/5B7FpsQzYaJDGrrFn43oCRnPiIuAptMvTyG/XJsb7B2lsxSpUD5J/AJsWvxmksRtgEvBC4Cry29gwRor5wItp9h4ro5mJ/fEg8SA13k9hcnYCY/gM9VkMo0l+mp1ASVYC3yb2LH8FcF1uOtJDFhAL5swDvkmcq22ziJiXo/7MJMYy9eHl5FduTY0n9d/cjTQVeC0+NWDkxULgI8AGdMM/kN/mTY2XD9DenbQZLvc7aNxP9yadzCD25L6L/PZvSiwnzpXbh+L+oT/LzqspsRT4LN1b9nVP8tu+qbGAGNtqpY73qr4IHJudREOdAxyanUSSLYFTiHkCbbQUuAW4aShuHoqFxH3GVbFonX8f6c+WjPIa04lNnFbFzHX+faQ/m02sZLcVsdTz1sSxaMoiN/06E3gnsTVvF90KbJ6dREN9idggrTbqVgA8Efjf7CQa7CTgPdlJJHs28B/k76LWq2VEp7rmwH7TOnEzq6+KNcEkYC5rFwWrYs0/24K4ldMENxH3+U/PTiTZj4BnZifRYE8CfpmdRB3NIFawy75U0+R4ad+t3k6zgX+lXpe17wZ+DXyeGEgOIQbBOk/ELdtkog0OIdrk80Qb3U3+8VoVK4iCsm2P1g7q4+QfkybHH4ixTus4nvyD0/TYo+9Wb7d9gcuo9hjcR+yh/kXgHcDTgW3LfqMttC3Rdu8g2vICom2rPJZXUM8d+jIdRX4/1/Q4vu9WL0ldbgFsDVwLrJedSIMtJb75jnZ/t6umErOXP0jcsy7KCmKAuGzo55VDcQPxIVfxJhFL6u42FLsTK+3tTrFXUhYBHyVuqS0t8Pe2wTxiLQ4N7gFgZ+LWnohLf9lVWdPj8r5bvVseTqyRMGj7LiW+hX6CmGewcbXpawwbE8fkE8QxWsrgx/nnwCOrTb9RpuCCQEXE5/pt+LaaR0yEyj4gTY+v9dvwHXUM8ejbeO25GPgV8U3wUOLqipphNnHMPkocw8WMf7zvwKePevVb8vu7pscyYJd+G76N/of8g9GGeG+/Dd9hc4HTWLv97gd+RtwqeBKuQtkmM4lj+kHiGN/P2sf+q8Q5od78F/n9XRviu/02fNscSP5BaEs8q8+2V0wyew8x0autz61ruGnEMX8PcQ6oP28hv79rS+zfZ9u3yq/JPwBtiR37bHtJGsRTyO/v2hKp+ytkPoN8BD5iU6RbsxOQ1AnOXi/OwcQE1hRZjwFOIR6dchJEMe7HSWqSqrEpMWlSxbiS2GdhRdUvnHUF4NU4+BdpQXYCkjrjLmIWu4qxG/F0UuUyrgCsB8wn1gRXMX5LrHonSVW4CfvwIv0VeASxCFVlMq4AHIcnTtFuy05AUqfY5xRrW+LpikpVXQDMAd5V8Wt2gbcAJFXJScfFey+wSZUvWHUB8AFgw4pfswssACRVySsAxduEihd0q7IA2Al4fYWv1yV+GCVVyT6nHG8BtqvqxaosAP4RmF7h63XJ/dkJSOqUhdkJtNRM4ENVvVhVBcCOwIsreq0umpqdgKROmZKdQIu9nJgUWLqqCoB34AlTJgsASVXKXEW27aYBb6vihao4iJsBr6rgdbrMAkBSlfxCV67XAhuV/SJVFABvIhb/UXn8MEqqkn1OuTYEXlf2i5RdAMwC3lzya8grAJKqZQFQvrdR8sT5sguAY4C5Jb+GLAAkVcsCoHxbA0eX+QJlFgCTgb8v8fdrNQsASVWyAKjGP1Dinj1lFgDPA3Yu8fdrtZnZCUjqFNd0qcZuwGFl/fIyC4B3lvi7tbZKnhmVpCHbZCfQIaWNpWUVAAcDjy/pd2u4h2UnIKlTKluuVjwReFwZv7isAsBv/9XaITsBSZ2yfXYCHVPKmFrG5IJ5wJUl/W6NbCXxyOXi7EQktd6GwD3ZSXTMcuBRwJ+K/KVlXAEoddaiRjQJK3JJ1bCvqd4UYkn9QhVdAGwFvKzg36ne7JCdgKRO8P5/jmOBOUX+wqILgLfi4yFZnAgoqQoWADlmEUvrF6bIAmAa8OoCf5/6s2N2ApI6YYfsBDrsNRS4CFORBcCzcNnfTPtmJyCpE0p5JE092QZ4WlG/rMgCwC1/cz0el+eUVK4puMZLtsLG2qJm628B/BXXpM+2N3BpdhKSWuvRwCXZSXTcYmKjoDsn+ouKugLwchz86+CA7AQktZp9TL4ZFLRLYFEFwLEF/R5NjB9OSWWyj6mHQsbcIgqAfYFdC/g9mrgDsxOQ1Gr2MfXwGGDPif6SIgoAv/3Xxw7EYkySVLSt8BHAOpnw2DvRAmAm8JKJJqFCPSE7AUmtZN9SLy8j1t8Z2EQLgCOBjSb4O1Ss52cnIKmV7FvqZQ7wnIn8gokWAF7+r59nA7Ozk5DUKrOJvkX1MqExeCIFwPbAUyby4irFLOC52UlIapXnEn2L6uUZwJaD/uWJFADHTPDvqzzOy5BUJPuUeppKrMMzkEFXApwEzAd2GvSFVaqlRFU44ZWiJHXepsAtTHDCmUpzNQM+ij/oN/gn4OBfZ9Nwwo6kYjwfB/86m8eA+zMMWgC8YsC/p+oclZ2ApFawL6m/gcbkQQqAyUzw0QNVwp0BJRXBvqT+Bpr4PUgBsB8wd5AXU2X+hLcAJBXjBcB12UloTNsA+/T7lwYpAPz2X293Ac8C7shORFIr3E70KXdnJ6IxHd7vXxikAOj7RVSZpUS1fk12IpJa5Q/AC4Fl2YloVKWPzTsBK43axqtHP3SSNGGvJ7+fM0aP7UY/dMP1ewXAy//19U/AF7KTkNRqnwVOzk5Coyr1KsDPyK9wjOHxXQZf1EmS+jEZ+AH5/Z4xPM4a47gN08+gsRGwABeEqJvLgAOAB7ITkdQZs4ELGHAFOpVmCbFL4H29/M/93AJ4Jg7+dbMIOBoHf0nVWgi8lBhwVB/Tgaf3+j/3UwB4/79+3g1clZ2EpE66FPhAdhIapud5AL3eApgK3AZsMlA6KsM5RKW3MjsRSZ01GfgFsT+M6uFOYHNg+Xj/Y69XAA7Cwb9O7gReiYO/pFwriHXo78lORA/ZFDiwl/+x1wLAxX/q5XXATdlJSBJwA/Dm7CS0lkLH7GvJf7zBiPjyOMdKkjJ8k/z+0Yj44zjHCuhtDsA8nGhWF9cDewH3JuchSevaBLic2JhG+eYRSziPqpdbAM8sJhcV4HU4+Euqp7uAN2YnoYccNt7/0EsBcFABiWjifgScnZ2EJI3hDODn2UkI6GHs7uUWwK3EIwXKswzYE7g6OxFJGsdewMUMttusinMbsMVY/8N4B2hnHPzr4PM4+EtqhsuAU7OTEJsTY/ioxisAenqWUKW6Bzg+OwlJ6sP7iOWClWvMMXy8AsD7//lOAG7PTkKS+nALcFJ2Ehp7DB9vDsBVxKMEynEd0f5uuCGpaWYB1wDbZSfSYVczxo6NY10B2BTYpfB01I934eAvqZkeBN6bnUTH7UKM5SMaqwA4gN43C1LxLgZOz05Ckibga8AV2Ul02CRiLB/RWAWAEwBzfSo7AUmaoJXAydlJdNyoY/lYBYATAPPcTKyrLUlN91VgQXYSHTbqWD5aATAdeGw5uagH/wEszU5CkgqwiOjTlOOxxJg+zGgFwD7AzNLS0VgWAZ/NTkKSCvQZYHF2Eh01kxjThxmtAPD+f57T8Ll/Se1yKzEhUDlGHNMtAOrHCTOS2siJzXksABrgHODK7CQkqQSXAz/NTqKjei4AdgbmlpuLRnFKdgKSVCL7uBxzGWFjoJEKgN3Lz0UjuAs4KzsJSSrRT4i+TtUbNraPVAC49n+O7+Ojf5LabSnR16l6w8b2kQqAUTcOUKm+k52AJFXAvi7HsLHdKwD1cA8xAVCS2u4cos9Ttca9AjAJdwDMcCbu+iepG5YQfZ6qtQvrbPC3bgGwPbB+ZeloFS+JSeoS+7zqrU+M8Q9ZtwDw/n/17sPZ/5K65Syi71O11hrjLQDy/YBY/1+SumIR0fepWmMWAE4ArN4Z2QlIUgL7vuqtNcZ7BSDfr7MTkKQE9n3VW2uMn7TOf7wL2Li6XDrvr8B22UlIUpIbgW2zk+iQu4FNVv3LmlcAtsLBv2rnZScgSYnsA6u1MTHWA2sXAN7/r9752QlIUiL7wOo9NNavWQB4/796Vr+Susw+sHoPjfVeAcizCLgkOwlJSnQJPgZdNa8A1MBFuPufpG5bSvSFqs6IVwB2Skiky7z0JUn2hVV7aKxfswDYMiGRLrswOwFJqgH7wmo9NNavKgA2A6bn5NJZ12YnIEk1MD87gY6ZToz5DxUAfvuv3p+zE5CkGrAvrN6WsLoA2GqM/1HFux13wpIkgHuBO7OT6JitwAIgy3XZCUhSjVyfnUDHrFUAeAugWl7ykqTV7BOr5S2ARF4BkKTVLACq5RWARBYAkrSaBUC1vAKQyJNdkla7PjuBjnESYCKvAEjSan4pqpa3ABLdlp2AJNXIrdkJdMyWAJOAWcADubl0ykpgytBPSRLMwF0Bq7beZPz2X7VFOPhL0poWA8uyk+iYLSfj/f+q3Z+dgCTVkH1jtbayAKieJ7kkDWffWK2tvAVQPedbSNJwC7MT6JgtJwMbZ2fRMVa5kjScfWO1Np4MzMzOomO8AiBJw1kAVGumBUD1PMklaThvAVTLAiCBVwAkaTi/HFXLAkCSpA6yAEhge0vScPaN1bIASDArOwFJqiH7xmpZACSwvSVpOPvGalkAJLC9JWk4+8ZqzZxM7MKk6niSS9Jw9o3VmuEVgOrZ3pI0nH1jtbwFkMD2lqTh7BurZQGQwJmukjScY1G1LAAS2N6SNJx9Y7UsABI46VKShnMsqpYFQILJwPTsJCSpRqYTfaOqYwGQxDaXpNXsE6s3czIwJTuLDnIioCStZp9YvSmTgQezs+igzbMTkKQamZudQAc9YAGQY6vsBCSpRuwTq/fgZOCB7Cw6aOvsBCSpRuwTq+cVgCRWu5K0mn1i9SwAkniyS9JqXgGonrcAkniyS9JqfimqnlcAkniyS9Jq9onVswBI4skuSat5VbR6D1oA5LAAkKTV7BOr94BzAHLMBDbJTkKSamBjXAo4g7cAElnxSpKX/7N4CyCRJ70k+WUoi7cAEm2TnYAk1YB9YQ5vASSal52AJNWAfWEObwEk2iM7AUmqAfvCHN4CSLRndgKSVAO7ZyfQUd4CSLQt8fiLJHXVhsDDspPoKAuAZF76ktRlfvvP4xyAZBYAkrrMPjCPcwCSefJL6jL7wDwPTAYWZGfRYZ78krrMPjDPgknEmvR3ZmfSUffgREBJ3XUHsGl2Eh21/mTgLmBhdiYdtRGwfXYSkpRgGxz8s9zB0C0AgBszM+k4L4FJ6iKfAMhzI8CqAuAviYl03V7ZCUhSAhdDy7NWAeAVgDxPzE5AkhIcnJ1Ah1kA1MTBwIzsJCSpQlOBJ2Un0WHeAqiJWcCB2UlIUoX2BTbITqLDvAJQI0/NTkCSKnRIdgId5xWAGrEAkNQl9nm5bgSYNPQvs3BJ4EwrgDnEmgyS1GbrE4vPTc9OpKNWAjOBJauuADyISwJnmgw8JTsJSarAwTj4Z7oVWAKrbwGA8wCyeUlMUhfY1+V6aKy3AKgPPxSSusC+LteIBYATAXPtDOyQnYQklWgurgCYzSsANWVlLKnNnsLqyefK4RWAmnpedgKSVKLnZCcgrwDU1aHEJTJJapv1gCOyk5AFQF1NBV6UnYQkleC5xBoAyjViAXATsLz6XLSOl2YnIEklODo7AbEcuHnVv0xe5z/MrzwdrWt/YMfsJCSpQJsBT89OQsxnjS/6k9f5jxdXm4tGYaUsqU1eAEzLTkJrj/HrFgCXVJiIRudtAElt4peaelhrjPcKQD3NA/bOTkKSCrAdsf6/8o15BcACoD68CiCpDV6Ci//UxZgFwF3A9ZWlorEcxfDjI0lN4+X/eriedbacH2mA8SpAPWxDLAwkSU21J7BXdhICRhjbLQDq7bjsBCRpAuzD6qOnAsAnAerjUGD37CQkaQBb4eX/Ohk2tnsFoP6soCU10VuA6dlJ6CHDxvbRZmbeRFRvyrcY2B64LTsRSerR+sSa85tkJyIglv/det0/HG2WuVcB6mMG8MbsJCSpD6/Cwb9ORhzTLQCa4Y3AzOwkJKkHU4C3ZyehtfRVADgRsF7mAi/LTkKSevA8YKfsJLSWEcf00eYAPAwXBKqbq4gnAlZmJyJJYzgf2C87Ca1lB+CGdf9wtCsANwB3lpmN+rYrcFh2EpI0hoNw8K+bOxlh8Iexl5p1HkD9nETcX5OkOjoxOwENM+pYbgHQLLsBr8lOQpJG8ELgwOwkNMxABYATAevpw8CG2UlI0hpmAP+UnYRGNOpYPlYBcFEJiWjiNgf+X3YSkrSGtxMTzVQ/o47l4+3RfAOxCp3qZTGwCz6pISnf5sB8YIPsRDTMX4in+kY03n7zPyk2FxVkBk62kVQP/4iDf12NOYaPVwCcVWAiKtaLgf2zk5DUaXsAr85OQqMaswAY7xbAhsAdwNTC0lGRfkPMul2RnYikTjoHeGp2fRM5ZAAAGCFJREFUEhrRMmAz4N7R/ofxrgDcS6zqpHraD/j77CQkddKrcPCvs/MZY/CH8QsA8DZA3Z0A7J2dhKROeRRwSnYSGtO4c/h6KQCcCFhv04GvArOyE5HUCdOBrwPrZyeiMRVSAFwMLJh4LirRPOCfs5OQ1Akn4lXHuruNHhbz66UAWAmcPeF0VLY3AM/OTkJSqz2DWPRH9XY2Pewc20sBAN4GaIovAFtkJyGplbYAvsz4T48pX09jdq8FQE/VhNJtDnwxOwlJrTOJGPw3z05E4+r5qn2vBUBP9xNUC4cBH8tOQlKrfBR4enYS6snv6HHeXq8FAHgboEneC7w+OwlJrfA2ok9RM5Ty6P7BxKUFoxmxDHjOiEdSknpzNLHSaHZ/ZvQeB414JEfQz2SOqcSywO5F3xwPAE8GLsxORFLjPB04E5iWnYh6dg8wh/gCOK5+bgEsA342SEZKsx7wA+Dh2YlIapR9gdNx8G+an9Lj4A/9FQDgPIAmmksctznZiUhqhF2AH+FKf03U1xjdbwHgvgDNtDPwY2JnKEkazc5EP29f0Ux9jdH9FgA3AFf3+XdUD48FfgVsl52IpFp6LHAesH12IhrIlcCN/fyFfgsAgG8M8HdUD/OAXxOX+CRplUOBXxC3DNVMX6viRXbAx0KaHrcTk3wk6WhgCfn9kjF4rKDCKze/rOANGeXGfcDT1j2wkjrlHfiFrg0x0BN6g9wCgFgTWs02m3hE8EXZiUiq3CTgE8Q24m7u03yVjskbEIvMZFc9xsRjOfABBi8GJTXLhsC3ye97jGLiPgZ8ZHPQTv8+4HsD/l3Vy2TgI8Tzo+70JbXbY4CLgRdkJ6LCnA7cP8hfnMi3Pm8DtMvTgEuBJ2YnIqkUbyIe83Nl0Hb5SsaLTgb+Rv7lD6PYWAa8D+8LSm2xEV7yb2vcwAT66olcAVgBnDaBv696mgKcQKwc6DPBUrM9Fi/5t9l/E4VAit3Ir4CM8uJvxI5gkpplCvAPwGLy+xGjvHgkyS4ivxGMcuObwFZIaoL9ifk82f2GUW6cxwQV8ehXygQEVepFwB+ISUQ+LijV06bA54nlvvdKzkXlq8XYOweXkexSXEg8SiSpHiYBrwQWkN8/GNXEImBjJqiIb3O3ExPG1A2PI4qAk4kFoSTl2Y1Ymv1LxJcxdcMZwN3ZSaxyJPkVkVF9/BX4O2Aqkqq0BXAKsJT8fsCoPp5FjUwH7iC/UYyc+CPwElw7QCrbJsDHiZXfsj/3Rk7cQkFfuoqa0LUE+EZBv0vN8whiL+pLgcOTc5HaaDbwfuDPwHuA9XLTUaKvEgu21cq+5FdGRj3iN8AhSJqomcBxwG3kf66NekRtn/C4jPzGMeoTPweeiqR+rQe8GbiR/M+xUZ+4gBo7mvwGqiqWEo9iZOfRhLgUeDkwDUlj2RL4KM6pMkaO51OgoidtTQWuBXYo+PdmuRY4k/gmeztwD3Dv0M/7ifbbhliO8VHr/NwJJ8Wt62/EzOXPU6NHWKQa2B14B/BSYlK1tK5rgV2IfXhq683kV0kTjc8RA/lEPAx4L3BFDd5P3eI+Yh2BHQZtXKklnkqso5L9mTTqH6+hAWbR7Akr/1R8k/Bo4BPEc/PZ769OsYzo/F4EzBi4daVm2Rp4N7G8dvZn0GhG3EyD+sgPkN9gg8SdZTTGGiYDTyEemVuR/F7rFncAnwb2Gbh1pfqaTmzJ+0Oi8M3+vBnNinfTIJsSl3mzG63feLCMxhjFfsBvS3ofTY/fE48+zR24daV62JuY93I7+Z8ro5lxD7ARDfMv5DfcILFnGY0xisnAq4FbS3gfbYhlwLnAO4nJL1LdTSOu8n0K+BP5nyGj+XESDbQtzdwl8AKq3/J2I6LDcF3vseOPwD8DT8L9B1QfmxCPQH+deLol+3NitCcWA1vRUKeS34CDxNtLaIte7Aqc02OOXY87gdOJqwMH49Koqs5WwBHAicQVKgt3o6z4L0pU9nPquxKPwTXtefj7iedyr096/ecRt1B2SHr9JloGXE5cwfnNUPyR+BBJg5pJTEx9PDFv5/HA9qkZqStWEGPoNWW9QBUD8/dp5gYxZwHPSHz9DYEvEDOHNZi7iYJgVVFwAeU/6aFmewRrD/Z74QqWyvE94MgyX6CKAmB/4LwKXqcMnwfeQO7KS28n1iawEyrGtawuBi4e+vfbUzNShinAdsTk0n2JAX9fYLPMpKQ17EfJa/9XdWn+XOI+bRN9h1iec0liDgcA3yQmVqp49wLziVnb6/78G95GaKoZwI7Aw4Gd1/m5IxbVqq9fEpOdS1VVAfAs4AcVvVYZfkrcl1+YmMNc4LvAQYk5dNEi4DpGLhBuoIb7cnfMbIYP7qt+bkv1T/RIRTiMWCW1FSYRi7tkz6icSFwIzCm6Yfq0Hj4lUKdYSpwXjVukowWeQCyPmn0OGEbRcRkt9DLyG3ai8Rei48k0k7iakt0WBjxAzHFRjtfiktpG++KltNBU4rG67MadaCwHPk7uc+fTiLkJ2W3R5VgGPHu8A6XSvQaLAKM9cT0tXuTsdeQ3cFHxN+BY8u4xTiEmBma3Q1fjVeMfIlXk1VgEGO2I19FiU4jFWrIbuci4jLyJeTOAX/eQo1FsvK+Xg6NKvY3888IwJhKXE2Nkqx1KfkMXHUuBfyiykfowF/hzDzkaxcSnezssSvAN8s8Pwxg0DqUjfkh+Y5cR3wE2KLCderUbsWVk9vtve3wbHyurs9nA1eSfJ4bRb/yQDplHezfQ+AOxyEjVnkFMTMt+/22Nm4jlmVVvuxHrdWSfL4bRaywlxsTKZd1vuB3YnFh6s23mEOs3n0m1687PH/r55Apfs0veAFyUnYTGtYB4XLfUNdSlAv0H8JXsJKq2GXAX+dVXWfE3Yp3xKk0FLikgd2Pt+GU/B0G10NbbjEa74i46vP/EceQfgDLjFmJb4SrtRexbkP3e2xJLgT36OgKqg0cAi8k/fwxjrDiODptG7MaWfRDKjJuAbYpqsB59qIC8jYiT+2t61cjHyT9/DGO0uBY3pOII8g9E2XEx1a4cOI1YnyD7fTc9bsGJf022PvBX8s8jwxgpjkAA/Jz8g1F2fJfqdl8E2AefCphovLzvVlfdHE3+eWQY68bP0UMeTayxn31Qyo6PFdVgPfpUgbl3Lf5vgPZW/UwiHs3NPp8MY1UsJ8Y8reEL5B+YKuL5RTVYD2YTj0Rlv+cmxvMGaG/V05vIP58MY1V8gZqo8pL0eLYkJkXMzk6kZHcQs8pvruj1Dge+X9FrtcXtwNbEEwBqvtnEXICNshNR5y0knlC5JTsRqNeyprcAJ2YnUYHNgC9W+HpnAN+r8PXa4Os4+LfJQqr9zEmjOZGaDP51NBO4gfxLNFXEGwtqs15sA9xb0vtoYzxmsGZWje1EN+YZGfWNG4gxTmN4CfkHqoq4H3hUQW3WC++D9haXD9rAqj1XBzQy4yVoXJOA88k/WFXEhcTyvVX5Vknvo02Rta2zyncs+eeX0c04n3rNuau13YBF5B+0KuLDBbVZL9YHrijpfbQhlhGTUdVOm+NtAKP6WESMaerDu8g/cFXEMuDxBbVZL3am3ZswTSQ6tSd3R51H/nlmdCvehfo2me58WP9IfDuvyrOAFSW8j6bHCyfSqGqE95B/nhndifOo19N2jfJI4AHyD2IVcVJBbdarDxaYextiOe1fg0JxKTb7XDO6EQ8QY5gm4G3kH8iqTpYqdw2cBJxWwvtoalw5seZUg1xH/vlmtD/eRs014dLEKcAvs5OowCzg+ApfbyVwDPDVCl+zzn6XnYAq4z4PKtsvibGr1ppQAKwkHt9ZmJ1IBY6l2ktGy7EIWOWi7ARUmd9mJ6BWW8jqR05rrQkFAMCfgXdmJ1GBqcAJFb+mRUCwAOgOj7XK9E5izFLBzib/vk7ZsQLYp6gG68MUujsnYBmw3sSbUA0xi9jrIfu8M9oXZ6PSbAfcTf5BbutJNAX4GN17RNDlf7vnUvLPO6NdcTcxRjVGU24BrHIjcFx2EhV4GvCUhNddDvw/4DnEYkFd4SXh7vGYq2jHEWNUYzStAAD4Et1Ysa3KJYLX9UNiR7yudJI+AdA9F2cnoFb5ITE2NUoTCwCA1wB3ZidRsoPImQuwyvVDOXw2MYeqdKXQ0Wo3ZCeg1riTGJMap6kFwM3AW7KTqED2QhKLgTcQSwdfk5xLWS4CLstOQpVr1KVa1dpbiDFJFTud/IkfZcZi6rM73TTg7bRjI6F7iSsbexfaQmqSTck/D43mx+kozVzgNvJPgjIjcy7ASOYAnyEenctum37jIuJSnWv+C+B+8s9Jo7lxGzEGKdGR5J8IZcatwIzCWqs4uxLfou8jv43GiquAk8mdT6F6uob889NobhyJauFk8k+GMuOY4pqqcBsCbyI208lup5VEwfRV4JVUu7mSmuen5J+vRjPjZFQbU4FzyT8pyopLimuqUj0R+HfgCqpZTOhe4nGubxHLbz6a2OVQ6sWp5H+2jebFucSY03ht6iy3IAaDrbMTKcnBNGsXsznAE4iiYH/iuMyht9sZK4jtkVfFXcB84Np1ft5SeNbqklPoxtNEKs5NxBopt2YnUoRWVDFDbgVeAPwvMD03lVK8iWYVALcD3x2KNW1AFAJziCcLHhghFlWXpjrswewE1ChLiDGmFYN/W72B/EtEZcQS6vNIoNQGHyb/c200J95AyzR1IaCxfAb4cnYSJZgGvDY7CalFvNKkXn2ZGFtapY0FAMDraeda36+jXbdtpEwWAOrFxcSY0jptLQAWEc9o3pGdSMG2Bp6XnYTUEhYAGs8dxFjSynOlrQUAxGYfLyFmlLfJh4jbAZImxkmAGssKYgxp7cZRU7ITKNl1wFLgkOxECjSXWH3vvOxEpIabBzw/OwnV1vto53yyTplEPIqWPYO0yFgIbFdkI0kddBT5n2WjnvFd2rVOzojafAtglZXEUrpt2s52feBT2UlIUgtdQ4wZK7MTKVsXCgCIS+bPG/rZFs8HnpGdhCS1SBvHilF1pQAAuBo4NjuJgv07sEl2EpLUEscSY0UndKkAADgdOCk7iQLtBHwb1waQpIk6iRgj1GJTgHPIn2RSZHy20BaSusFJgMaqOIf2PxU3TNeuAAAsJzZ0uDQ7kQK9DnhrdhKS1ECXEmPC8uxEqtbFAgDgHmIC3Z+yEynQv+CkQEnqx5+IfvOe7EQydLUAgNjS8VDas6f8FOBbwJOzE5GkBriFGAM6u71vlwsAiJUC21T9bQD8BDg6OxFJqrFVV4Gvy04kU9cLAIDLgMNpz2YP04HTgHdnJyJJNbSI6PMvy04kmwVAOBd4Me2ZBDIJOJFYJ8BjLElhOdHXn5udiOrnWPIfRyk6zgTmFNlIUkv4GGD3om2Lwalg7yL/JC06biWWt5S0mgVAt+JdSD34JPknaxlxGi4dLK1iAdCd+CRSjyYBp5J/0pYRNwHPKqylpOayAOhGnEoHtvZVsaYS98+zT96y4ofA3oW1ltQ8FgDtjzNxrxQNaBbwK/JP4rJiBbF40C5FNZjUIBYA7Y5fEX24NLCNgd+TfzKXGcuIy2QPL6bJpEawAGhv/J7ouzUGnxEf393A04E/ZydSoinAMcC1wM+AlwHrpWYkSYP5M9Fn352diNpjZ2ICXXZlW1XcA3we2L+IxpNqyCsA7Yu/EX21VLidiN2jsk/yquMmYq7AW4BH45UjtYMFQLviT8COqGc+GtG/rYBzgN2yE0l0D3AecAlx22D+0M8m7Ko1B9hjjfgS8V7UPUcBX89OQoW4gtjZ7+bsRJrExyP6dzPwBODHwL7JuWTZCHjmUKzpPlYXA9eu88+3VZjfbGC7odgemMfqAX/Ldf7fH1eYl6TiXQAcBtyZnUjTWAAM5k7gEOD7wFOSc6mTDYi1BUZaX+A+YAFx9eAe4N41/nmkf18MTBuK6WP8XA/YhtUD/nb0N/vXq2BSc/0MOAJYmJ1IE1kADG4hUXV+E3huci5NsMFQ1I3zGaRm+h7wEuLLggZg5zcxi4EXAP+dnYgG5hUAqXlOBV6Ig/+EWABM3DLiGfpPZyeigfgZkJrlZOBVwPLsRJrOzq8YK4lH5E7ITkR98zMgNcfxwHFEn6sJsvMr1geAv89OQn3xFoBUfyuBtwIfyU6kTSwAivcvwKvx8lRT+BmQ6m3VbdZ/y06kbez8yvFFYpGRJdmJaFxeAZDqy4nWJbIAKM93gMOBB7IT0Zj8DEj1tJBYbOz72Ym0lZ1fuc4Cnoa7UtWZnwGpfu4gFln7RXYibWbnV77zgAOJ5XBVP94CkOrlKmIX0t9mJ9J2FgDVuAp4HPCD7EQ0jJ8BqT6+CzwevzBVws6vOvcQcwI+gs+w1omfASnfCuD9xIQ/1/WviJ1ftVYSC1kcQWx+o3zeApBy3Q08G/gofjmqlAVAjjOIrYT/kJ2I/AxIia4gbo+6LXcCO7881xBFwP9kJ9JxXgGQcnyHmOw3PzuRrrIAyHUfcCSxhPCK5Fy6ys+AVK0VwHuJ3fy835/Izi/fSmIToefgegEZ/AxI1bkLOAw4MTsR2fnVyY+Ie2FXZCfSMd4CkKpxOfBYYoE01YAFQL3MB/YDvp2dSIf4GZDK9y3ifv912YloNTu/+rkfeBHwHpwXUAU/A1J5lgPvAl5M9G2qETu/+joJeAZwZ3YiLectAKkcdxKb+XwiOxGNzAKg3s4B9gF+lZ1Ii/kZkIp3LtF3nZOdiEZn51d/1wNPAo4DHkzNpJ28AiAV50Hg7USfdX1qJhqXBUAzrABOBh4NnJ+cS9v4GZCKcR6wF/CvuKRvI9j5NcsfgYOBdwOLk3NpCz8D0sQsAt5J9E3u4tcgdn7Nsxz4J+AxwEXJubSBtwCkwV0I7A18Ep9aahwLgOa6iniu9gPA0uRcmszPgNS/xcRyvgfgpmaNZefXbMuIZYQfB1yWnEtT+RmQ+vM7Yob/icQVSTWUnV87XEYUAf9IFAXqnZ8BqTdLgQ8Sq5VemZyLCmDn1x5+OAfjZ0Aa36X4JaN17PzaZ9XluZPw8lwv/AxIo1sGfATYF28zto6dXzstJvYSOAi4JjmXupuSnYBUU1cAjweOx4nGrWQB0G6/IR7R+RDwQG4qteVnQFrbvcQM/32Ai5NzUYns/NrvQeDDwCOAU/FZ3XX5GZDCcuBzRF9xIrAkNx2Vzc6vO24CjgUeC/xvbiq14mdAgrOJpcZfD9yWnIsqYufXPZcATwaOIJYW7jrnAKjLrgYOA55O3PNXh1gAdNf3gd2JnbvuTM4lk58BddHtwJuAPYEfJ+eiJHZ+3baU2LlrZ+BTdHOmr58BdckSYt3+nYH/wGf6O83OTwB3Ae8AdgW+l5xL1fwMqCtOB+YRO/fdk5yLasDOT2uaDxwJPJFYUKgL/Ayo7S4itup9AXBdci6qETs/jeRcYtnPY4C/JedSNicBqq3+CryCWMXv/5JzUQ1ZAGg0K4GvAI8kVgJbmJtOafwMqG0WEvuCPBL4b+KzLEkD2wR4H3Ar0aG0Jb5SZCOpUY4i//wrMm4lPqObFNlIkrTKTOANxHyB7A6viDit2OZRg7SlAJhPLOAzs9jmkaSRTQFeREwWzO4AJxJfK7ph1BgvJv/8m0hcBLwQb2NJSvRU4BzyO8RB4nMltIea4Znkn3+DxFnAISW0hyQN7DHAN4nFRbI7yV7jQ2U0hBrh0eSff73GMuDrQzlLUm09HPgMsRNhdsc5XrympDZQ/c0l//wbLx4APg3sWFIbSFIpNgdOIPYayO5IR4tHlfbu1QTXkH8OjhR3ENt4zynvrUtS+WYTSw3fSH7HumZcXeabViP8M/nn4ZpxA/A2YP0y37QkVW0a8eTAj6jHPIEPlPt21QD7kn8eLgXOBJ4PTC337UpSvq2ITUmuJKfT/Rt+y1L4H3LOwcuBvwe2KP8tSlI9PZaY6HQH1XW+r6jknakJdiW2ya3ivLsdOIV4YkaSNGQ6cRn0TOKyaFmd8ClVvSE1xisp73xbCpxB7LQ5vaL3I0mNtQUxcfD3FNsZfwtXTtPIPkyx59plwHHE0zCSpAE8BvhXYAGDd8aLiDkHDv4ay8uBuxn8PFsAnAzsXXXiktRm04AjiElbvd6zvQ/4DnGfV+rF9sQmUb0WAkuIc/II4hyVGmFSdgLSgOYC+wPbAtsNxYbAPUNxF3A+8DNgcVKOarZpwJOBg4gtdjcGNgLuJda0uBH4K3GeLUjKUZIkSZIkSZIkSZIkSZIkSZIkSa33/wGqXnFnZWCSoAAAAABJRU5ErkJggg==;" vertex="1" parent="1">
                    <mxGeometry x="426" y="60" width="59.11" height="59.11" as="geometry"/>
                </mxCell>
                <mxCell id="95" value="" style="edgeStyle=none;html=1;strokeColor=#141414;strokeWidth=2;fontColor=#B3B3B3;entryX=0.5;entryY=1;entryDx=0;entryDy=0;" edge="1" parent="1" source="12" target="89">
                    <mxGeometry relative="1" as="geometry"/>
                </mxCell>
                <mxCell id="101" value="" style="sketch=0;outlineConnect=0;fontColor=#232F3E;gradientColor=none;fillColor=#232F3D;strokeColor=none;dashed=0;verticalLabelPosition=bottom;verticalAlign=top;align=center;html=1;fontSize=12;fontStyle=0;aspect=fixed;pointerEvents=1;shape=mxgraph.aws4.email_2;" vertex="1" parent="1">
                    <mxGeometry x="820" y="200" width="46.16" height="29" as="geometry"/>
                </mxCell>
                <mxCell id="104" value="" style="edgeStyle=none;html=1;strokeColor=#141414;strokeWidth=2;fontColor=#B3B3B3;endArrow=classic;endFill=1;entryX=0;entryY=0.5;entryDx=0;entryDy=0;entryPerimeter=0;" edge="1" parent="1" source="102" target="8">
                    <mxGeometry relative="1" as="geometry"/>
                </mxCell>
                <mxCell id="102" value="" style="sketch=0;outlineConnect=0;fontColor=#232F3E;gradientColor=none;fillColor=#a1a1a1;strokeColor=none;dashed=0;verticalLabelPosition=bottom;verticalAlign=top;align=center;html=1;fontSize=12;fontStyle=0;aspect=fixed;pointerEvents=1;shape=mxgraph.aws4.internet;" vertex="1" parent="1">
                    <mxGeometry x="20" y="311.53000000000003" width="48" height="29.54" as="geometry"/>
                </mxCell>
                <mxCell id="105" value="Internet" style="text;html=1;align=center;verticalAlign=middle;resizable=0;points=[];autosize=1;strokeColor=none;fillColor=none;fontColor=#B3B3B3;" vertex="1" parent="1">
                    <mxGeometry x="15" y="341.07" width="60" height="30" as="geometry"/>
                </mxCell>
                <mxCell id="106" value="" style="sketch=0;outlineConnect=0;fontColor=#232F3E;gradientColor=none;fillColor=#a1a1a1;strokeColor=none;dashed=0;verticalLabelPosition=bottom;verticalAlign=top;align=center;html=1;fontSize=12;fontStyle=0;aspect=fixed;pointerEvents=1;shape=mxgraph.aws4.user;" vertex="1" parent="1">
                    <mxGeometry x="-90" y="292.16" width="62.7" height="62.7" as="geometry"/>
                </mxCell>
                <mxCell id="107" value="Client" style="text;html=1;align=center;verticalAlign=middle;resizable=0;points=[];autosize=1;strokeColor=none;fillColor=none;fontColor=#B3B3B3;" vertex="1" parent="1">
                    <mxGeometry x="-83.65" y="356.6" width="50" height="30" as="geometry"/>
                </mxCell>
            </root>
        </mxGraphModel>
    </diagram>
</mxfile>